<?xml version="1.0" encoding="UTF-8"?>
<svg id="_レイヤー_1" data-name="レイヤー_1" xmlns="http://www.w3.org/2000/svg" version="1.1" viewBox="0 0 254.08 479.34">
  <!-- Generator: Adobe Illustrator 30.0.0, SVG Export Plug-In . SVG Version: 2.1.1 Build 123)  -->
  <defs>
    <style>
.st0 {
        fill: #fff;
      }
.st1 {
        fill: #231815;
      }
.st2 {
        fill: #a71018;
      }
.st3 {
        fill: #9b0b13;
      }
</style>
  </defs>
  <g>
    <rect class="st3" x="107.03" y="191.14" width="129.4" height="129.47" transform="translate(-40.72 32.65) rotate(-9.72)"/>
    <g>
      <path class="st2" d="M147.2,219.95s6.17-8.72,24.52-8.81c18.34.09,24.52,8.81,24.52,8.81l6.77-9.76s1.35-3.25-.68-4.74c0,0-9.71-8.09-30.61-9.07-20.9.98-30.61,9.07-30.61,9.07-2.03,1.49-.68,4.74-.68,4.74l6.78,9.76Z"/>
      <path class="st2" d="M171.58,196.37s.09,0,.14,0c.04,0,.09,0,.13,0h-.27Z"/>
      <path class="st2" d="M190.94,222.93c2.44,2.17,3.93-.27,3.93-.27,1.08-3.25-2.3-4.61-2.3-4.61,0,0-6.18-5.56-20.45-5.56h-.68c-14.28,0-20.46,5.56-20.46,5.56,0,0-3.39,1.36-2.3,4.61,0,0,1.49,2.44,3.93.27,0,0,.67-1.36-.68-2.58,0,0,7.72-5.56,19.64-5.29h.41c11.92-.27,19.64,5.29,19.64,5.29-1.36,1.22-.68,2.58-.68,2.58Z"/>
      <path class="st2" d="M175.64,248.95l11.92-16.67c1.77-4.47-2.03-6.5-2.03-6.5-2.85-2.44-6.77,0-6.77,0,.38-8.62-5.92-8.6-6.91-8.55-.99-.06-7.28-.07-6.91,8.55,0,0-3.93-2.44-6.77,0,0,0-3.79,2.03-2.03,6.5l11.92,16.67s1.08-.54,2.71-.81v-8.81h2.17v8.81c1.63.27,2.71.81,2.71.81Z"/>
      <path class="st2" d="M118.81,271.78l11.37-3.43s-6.38-8.57-.8-26.04c5.75-17.44,15.95-20.62,15.95-20.62l-7.18-9.46s-2.67-2.3-4.72-.82c0,0-10.7,6.74-18.08,26.33-5.53,20.19-.84,31.93-.84,31.93.79,2.39,4.3,2.11,4.3,2.11Z"/>
      <path class="st2" d="M115.3,237.87s.03-.08.05-.12c.01-.05.02-.09.04-.13l-.08.26Z"/>
      <path class="st2" d="M133.21,243.26c3.43-11.43,11.09-17.06,11.09-17.06.74,1.67,2.24,1.44,2.24,1.44,2.81-1.65.95-3.82.95-3.82-2.76-2.04-5.09.77-5.09.77,0,0-7.2,4.16-11.61,17.75l-.21.64c-4.41,13.58-1.04,21.18-1.04,21.18,0,0,.24,3.64,3.67,3.62,0,0,2.78-.67,1.47-3.65,0,0-1.08-1.06-2.66-.15,0,0-2.9-9.07,1.05-20.32l.12-.39Z"/>
      <path class="st2" d="M139.12,259.71s.76,4.24,5.55,3.95l19.53-6.19s-.18-1.2.06-2.83l-8.37-2.72.29-.9.08-.26.29-.9,8.37,2.72c.76-1.47,1.61-2.33,1.61-2.33l-12.17-16.49c-3.71-3.06-6.81-.08-6.81-.08-3.2,1.95-2.09,6.44-2.09,6.44-8.07-3.02-10.01,2.97-10.26,3.93-.36.93-2.32,6.91,5.99,9.22,0,0-3.53,2.98-2.09,6.45Z"/>
      <path class="st2" d="M137.36,304.23s-.07-.06-.1-.08c-.04-.03-.08-.05-.12-.08l.22.16Z"/>
      <path class="st2" d="M145.93,292.2c-14.79-10.86-14.66-21.54-14.66-21.54l-11.21,3.91s-3,1.84-2.24,4.24c0,0,3.1,12.26,19.44,25.34,17.48,11.5,30.09,10.66,30.09,10.66,2.52,0,3.34-3.44,3.34-3.44l.25-11.88s-10.12,3.42-25.01-7.29Z"/>
      <path class="st2" d="M168.31,293.9s-1.35.7-.97,2.48c0,0-9.51-.05-18.99-7.28l-.33-.24c-9.8-6.79-12.78-15.83-12.78-15.83,1.81-.19,2.06-1.68,2.06-1.68-.7-3.18-3.34-2.09-3.34-2.09-2.79,1.99-.84,5.08-.84,5.08,0,0,1.74,8.13,13.28,16.52l.55.4c11.55,8.39,19.81,7.53,19.81,7.53,0,0,3.53.89,4.57-2.38,0,0,.23-2.85-3.02-2.53Z"/>
      <path class="st2" d="M164.96,259.3l-19.44,6.48c-4.05,2.58-2.18,6.46-2.18,6.46.87,3.65,5.48,3.98,5.48,3.98-5.36,6.75-.27,10.44.57,10.98.77.63,5.85,4.34,10.61-2.85,0,0,1.74,4.28,5.48,3.98,0,0,4.26.59,5.46-4.07l.15-20.5s-1.2-.2-2.67-.93l-5.18,7.13-.77-.56-.22-.16-.77-.55,5.18-7.13c-1.16-1.17-1.71-2.25-1.71-2.25Z"/>
      <path class="st2" d="M207.26,303.76s-.07.05-.11.07c-.04.03-.07.06-.11.09l.22-.16Z"/>
      <path class="st2" d="M224.35,274.25l-11.21-3.91s.13,10.69-14.66,21.54c-14.89,10.72-25.01,7.3-25.01,7.3l.25,11.88s.82,3.43,3.34,3.44c0,0,12.61.84,30.1-10.66,16.33-13.08,19.43-25.34,19.43-25.34.77-2.4-2.24-4.23-2.24-4.23Z"/>
      <path class="st2" d="M177.54,298.56s8.26.86,19.82-7.53l.54-.4c11.55-8.4,13.28-16.52,13.28-16.52,0,0,1.94-3.09-.84-5.09,0,0-2.64-1.1-3.34,2.09,0,0,.25,1.5,2.06,1.69,0,0-2.99,9.04-12.79,15.83l-.33.24c-9.49,7.23-19,7.27-19,7.27.38-1.78-.96-2.48-.96-2.48-3.25-.32-3.02,2.53-3.02,2.53,1.03,3.27,4.57,2.37,4.57,2.37Z"/>
      <path class="st2" d="M200.84,272.08s1.87-3.87-2.18-6.46l-19.44-6.47s-.56,1.07-1.72,2.25l5.18,7.13-.77.56-.22.16-.77.56-5.17-7.13c-1.48.74-2.67.93-2.67.93l.15,20.5c1.21,4.65,5.47,4.06,5.47,4.06,3.74.3,5.48-3.98,5.48-3.98,4.76,7.19,9.84,3.48,10.61,2.85.83-.54,5.93-4.22.57-10.98,0,0,4.61-.33,5.48-3.98Z"/>
      <path class="st2" d="M228.44,237.22c-7.39-19.58-18.08-26.32-18.08-26.32-2.04-1.47-4.72.82-4.72.82l-7.18,9.46s10.2,3.18,15.95,20.61c5.59,17.48-.79,26.05-.79,26.05l11.37,3.43s3.51.29,4.3-2.11c0,0,4.7-11.74-.84-31.94Z"/>
      <path class="st2" d="M228.41,237.1s.02.08.03.12c.02.04.04.09.05.13l-.08-.25Z"/>
      <path class="st2" d="M210.62,267.38c3.43.03,3.67-3.61,3.67-3.61,0,0,3.37-7.6-1.04-21.18l-.21-.64c-4.41-13.59-11.6-17.75-11.6-17.75,0,0-2.33-2.8-5.09-.77,0,0-1.86,2.17.96,3.83,0,0,1.5.22,2.24-1.44,0,0,7.67,5.63,11.09,17.06l.13.39c3.94,11.26,1.05,20.32,1.05,20.32-1.58-.91-2.66.15-2.66.15-1.31,2.99,1.47,3.65,1.47,3.65Z"/>
      <path class="st2" d="M208.67,243.8c-.26-.96-2.19-6.95-10.26-3.93,0,0,1.11-4.49-2.1-6.44,0,0-3.1-2.98-6.81.07l-12.16,16.49s.85.86,1.61,2.33l8.37-2.72.29.9.08.26.3.9-8.38,2.72c.24,1.63.07,2.83.07,2.83l19.53,6.19c4.8.29,5.56-3.94,5.56-3.94,1.44-3.46-2.09-6.45-2.09-6.45,8.31-2.31,6.35-8.29,5.99-9.22Z"/>
      <path class="st2" d="M176.72,255.87c0-2.7-2.18-4.88-4.88-4.88s-4.87,2.19-4.87,4.88,2.18,4.88,4.87,4.88,4.88-2.19,4.88-4.88Z"/>
    </g>
  </g>
  <g>
    <path class="st1" d="M198.31,232.67c-1.19-.09-2.12-.07-2.78.04l-.48-.21c.9-4.47,2.45-7.49,4.64-9.04l3.08-.08c.08-.12.22.5.46,1.83l.17,1c.05.29-.04.7-.23,1.23l.88,2.5c-2.6,1.52-4.49,2.43-5.73,2.74ZM233,222.91c-3.02-.46-4.73-.67-5.1-.59-1.05.17-2.52,1.08-4.41,2.66-.74-.36-1.33-.59-1.75-.73l-.36-.37-.06-.42c1.24-.71,2.26-1.13,3.02-1.27,2.04-1.32,3.45-2.44,4.27-3.37-.16-.37-.45-.88-.86-1.56-.4-.66-.63-1.17-.7-1.57-.34-2-.13-3.36.64-4.08-1.28-1.74-4.33-4.01-9.12-6.83-5.13-2.95-8.68-4.26-10.68-3.92-.77.13-1.65.68-2.66,1.64-4.87.82-9.67.33-14.39-1.52-.19-1.64-.08-4.36.36-8.16.48-3.51.56-6.18.24-7.99-4.04-3.62-6.92-5.49-8.61-5.59-.54.78-.71,1.83-.48,3.17,1.44,8.4,2.1,14.86,1.99,19.4h-.88c-.43-.22-.73-.46-.87-.74l-.28.05-1.27.36c-.11-.08-.96-.42-2.52-1.04-.86-.34-1.58-.86-2.18-1.54-1.41-.15-3.27-.77-5.61-1.83-1.92-.95-3.9-1.26-5.9-.91-2.29.4-3.7,1.28-4.25,2.65l.03.14c.14.27.32.44.51.5l-.08.3c-.35.27-.75.48-1.21.64l-.25.35.11,1.45c.51,1.29.92,2.19,1.21,2.73l-.14.02c-.28.15-.44.33-.51.53l-.4.22,1.2,1.85-.76.72-.07.46c.61.68,1.08,1.13,1.42,1.38,2.46,4.1,4.6,6.23,6.39,6.42l-.02.74c1.06.99,1.87,1.74,2.45,2.23.26.35.52.91.74,1.71.23.79.79,1.46,1.67,2,.35.33,1.25.71,2.69,1.16,1.14.39,1.98.93,2.48,1.63.49-.09,1.13-.05,1.94.11.81.16,1.4.2,1.79.13l.64.34.07.43c.06.28.04.49-.04.6l3.34.6c.15-.22.27-.44.33-.65l.4-.21c.81.15,1.48.33,2,.53.2.56.35,1.12.45,1.69.17,1.06.18,3.06-.01,6.03-2.71.78-7.76,2.57-15.11,5.4-8.02,3.04-12.64,5.05-13.84,6.04-1.47,1.14-2.26,2.26-2.37,3.36l1.3,3.3c1.75.48,2.81.7,3.19.63l.57-.09c1.06-.76,5.24-2.81,12.57-6.14,7.34-3.31,11.85-5.21,13.53-5.69l.26-.2.3-.04c.3.04.56.15.78.3,0,.5.38,3.07,1.19,7.75-.89.55-3.39,1.96-7.52,4.22-4.4,2.43-6.84,3.68-7.31,3.77-1.06.67-1.47,1.72-1.22,3.15.11.66.73,1.25,1.83,1.75,1.13.5,1.99.59,2.63.29,5.94-3.18,10.03-5.36,12.29-6.52.47,1.08.77,1.95.89,2.64-.03-.19.02,1.03.18,3.64-8.07,3.35-12.6,6.13-13.57,8.37l.03.29c.17,1.45,1.83,2.33,5.03,2.66,4,.5,6.11.77,6.32.84l3.29-.57.62.18c.59,1.18,1,2.09,1.21,2.74l-.21.49c.13.74.16,1.48.07,2.18-1.42.24-4.46,1.43-9.11,3.55-4.64,2.11-7.44,3.26-8.39,3.41-2.39.42-3.9.83-4.58,1.23-.66.41-.92,1.1-.75,2.05.36,2.09,1.94,3.5,4.71,4.2,2.29.28,4.6.58,6.9.87,6.17-3.6,10.11-5.51,11.83-5.71l1.29-.22c.39,1.71.71,3.32.97,4.84.86,5.06,1.06,9.3.56,12.7,2.69,7.7,5.39,11.55,8.15,11.57l2.17-1.1c.29-1.63.48-2.89.53-3.77-2.29-6.48-3.52-10.25-3.7-11.29-.59-3.44-1.14-5.8-1.65-7.09.11-.51.1-1.99-.02-4.41-.17-2.13-.09-3.38.25-3.73,1.14-1.37,4.62-3.17,10.48-5.4,5.84-2.22,9.83-4.36,11.94-6.39-.49-1.1-.86-1.86-1.14-2.31l-.12-.72c-3.51-1.56-6.68-2.08-9.55-1.61-1.44.24-2.44,1.22-3.03,2.88-2.69.46-6.19,1.71-10.54,3.71-.85-.33-1.31-.68-1.38-1.07-.03-.19-.02-.4.05-.6-.12-.76.34-2.31,1.41-4.66.09-.02,1.73-.48,4.9-1.43,1.98-.52,3.17-1.81,3.62-3.86-.63-1.36-1.4-2.07-2.29-2.11-.64-1.46-1.78-2.21-3.4-2.28-1.63-.07-3.24-.11-4.81-.14-1.44-.93-2.41-1.7-2.9-2.29l1.06-5.05c.55-.19,1.33-.62,2.34-1.29,1.01-.65,1.81-1.05,2.37-1.15.39-.06.73-.06,1.04-.03.52-.37,1.2-.36,2.07.09,1.33-1.39,4.33-2.51,9-3.31l.36-.51c.21.17.58.26,1.07.27l.57-.1c1.62-1.45,2.37-3.6,2.28-6.43,0-3.44.17-5.63.5-6.57l2.48-1c3.44.1,5.56.07,6.32-.06.28-.04.81-.23,1.59-.56.78-.33,1.37-.49,1.77-.45l5.12-.15c.77-.02,1.71-.55,2.8-1.58,1.12-1.02,1.61-1.91,1.48-2.68-.51-2.95-3.69-4.87-9.52-5.73ZM202.94,241.6c-.38,1.83-.74,2.92-1.06,3.27-2.83,1.27-4.28,1.97-4.36,2.07-.48.07-.87.1-1.18.05l-.33-.22c-.2-.67-.35-1.27-.45-1.85-.35-2-.09-3.62.78-4.85,3.3-1.46,6.12-2.38,8.51-2.78.58.59.93,1.22,1.05,1.88-1.27,1.2-2.27,2.02-2.96,2.42Z"/>
    <path class="st1" d="M162.93,272.81c-.94.3-2.32.28-4.14-.05-1.81-.33-3.12-.42-3.87-.28-2.76.47-8.58,2.95-17.42,7.44-2.13-1.48-3.46-3.86-4.02-7.16-.81-4.68-1.13-6.82-.96-6.42.12-.45.34-.76.71-.97,1.54.43,2.74.8,3.57,1.08,3.19.3,5.57.47,7.15.48,2.07-1.06,3.5-2.79,4.26-5.19-.11-.68-.52-1.9-1.2-3.61-2.08-1.21-3.68-1.99-4.83-2.37l-1.21,1.49-1.61-1.64-8.43.59-.67-1.37.12-1.91-1-3.23.78-.56,2.83,1.85c3.71-1.2,7.86-1.05,12.43.42l3.6-1.26c.69-2.23,1.29-3.97,1.76-5.18-.71-4.12-4.92-5.52-12.64-4.2-5.34.91-8.06,2.51-8.15,4.8-.31-.1-.62-.46-.94-1.12l-.13-.83c-.25-.93-.21-2.61.17-5,.37-2.4.73-3.98,1.09-4.76l1.04.88c.34-.34,2.6-.37,6.76-.09,3.32-1.85,7.26-6.56,11.88-14.14.95-1.85,1.68-3.32,2.18-4.4,2.41-3.1,3.53-5.12,3.37-6.09-.07-.41-.17-.75-.32-1l-1.1-6.39c-4.47-1.5-7.98-2.24-10.53-2.24-.29.06-2.26.54-5.93,1.46-2.66.59-4.48,1.41-5.48,2.42l-1.7-.56-.9.78-.86-.71-1.93.77c-1.44.24-3.48.09-6.11-.45-1.15.77-2.05,1.28-2.7,1.53l-1.35-1.89-1.79,1.58c-.71-.15-1.48-.66-2.32-1.5-1.33.8-2.72,1.6-4.15,2.41-1.43.81-2.29,2.3-2.61,4.48-.1.58-.06,1.53.12,2.83.19,1.33.07,2.58-.32,3.77,1.01,2.94,2.34,4.4,4,4.41,1.61,2.41,2.97,4.14,4.14,5.23l.39-.29c6.91,3.2,10.74,5.15,11.46,5.89.52-.38.91-.64,1.18-.83.22.1.44.28.68.52-2.28,2.8-3.48,4.84-3.66,6.14-.03.43.06.98.27,1.65.24.81.39,1.42.46,1.82-.14-.81.28,3.64,1.25,13.38.3,4.05,1.14,10.07,2.5,18.04.48,2.88,1.26,6.23,2.29,10-3.91,2.37-6.8,4.35-8.68,5.94-2.45,1.27-4.31,2.15-5.59,2.65-1.96,1.2-3.14,1.83-3.5,1.88-.19.04-3.06-.39-8.61-1.28-.29.05-.74.4-1.36,1.08-.62.66-1.07,1.03-1.36,1.08-1.88,1.02-2.93,1.81-3.13,2.34-.2.53-.05,2.31.48,5.33,2.14,2.75,3.55,4.98,4.25,6.69,2.64,2.95,4.68,5.07,6.08,6.39l6.8.1c1.15-1.31,2.17-2.2,3.08-2.64,2.19-2.63,3.74-4.8,4.62-6.51,1.78-1.58,3.24-2.61,4.33-3.08.41,1.2.7,2.36.9,3.46.26,1.51.52,3.82.82,6.96.29,3.14.57,5.47.82,6.98.17.96.76,2.12,1.78,3.52,1.18,1.77,1.94,2.99,2.24,3.64,1.94.94,3.67,1.42,5.25,1.43,1.68-.99,3.47-2.92,5.33-5.78,1.46-2.51,2.94-4.96,4.49-7.34,2.49-3.24,4.44-5.64,5.84-7.16.54-.23,1.43-.67,2.64-1.3,1.22-.64,2.21-1.02,2.96-1.15.6.03,1.11.17,1.55.37l3.04-4.55-.11-.61c-.46-3.32-2.56-5.78-6.27-7.42-3.07-1.31-5.94-1.74-8.61-1.27l-1.78.72.09.63c1.39,2.31,2.63,4.21,3.79,5.72-3.03,2.92-5.33,5.01-6.87,6.27-.52.51-1.43,1.73-2.76,3.65-1.03,1.45-2.1,2.41-3.19,2.89-.6-.61-.96-1.39-1.14-2.36-.04-.28-.19-2.8-.41-7.57l-1.35-3.59c.21-1.02.42-1.82.61-2.43.5-1.08,2.95-3.05,7.37-5.93,3.89-2.51,6.71-4.12,8.45-4.85,2.88-.91,5.03-1.56,6.45-1.95,3.45-2.71,5.92-4.89,7.41-6.58-2.38-2.41-3.78-4.02-4.19-4.78Z"/>
  </g>
  <g>
    <path class="st0" d="M195.69,230.77c-1.19-.09-2.12-.09-2.79.03l-.49-.2c.91-4.48,2.45-7.5,4.65-9.05l3.08-.09c.07-.11.22.5.45,1.84l.18,1c.05.29-.04.7-.24,1.22l.88,2.51c-2.59,1.52-4.48,2.44-5.72,2.75ZM230.38,221c-3.01-.46-4.73-.66-5.11-.6-1.05.18-2.52,1.07-4.39,2.66-.75-.37-1.33-.6-1.76-.73l-.35-.38-.07-.44c1.26-.69,2.27-1.11,3.03-1.24,2.04-1.33,3.46-2.47,4.28-3.39-.17-.36-.45-.88-.86-1.54-.4-.67-.63-1.19-.7-1.57-.34-2.01-.13-3.36.62-4.09-1.28-1.74-4.32-4.02-9.11-6.83-5.12-2.95-8.68-4.26-10.67-3.93-.77.14-1.67.68-2.67,1.64-4.87.84-9.65.33-14.39-1.51-.18-1.63-.06-4.36.37-8.17.47-3.51.56-6.18.26-8-4.06-3.61-6.93-5.48-8.61-5.58-.57.78-.72,1.84-.5,3.18,1.44,8.4,2.1,14.86,1.99,19.38l-.88.02c-.43-.22-.71-.47-.86-.73l-.28.04-1.27.37c-.11-.07-.95-.43-2.53-1.04-.84-.33-1.57-.85-2.17-1.54-1.41-.15-3.28-.76-5.62-1.83-1.93-.95-3.89-1.26-5.89-.91-2.29.39-3.72,1.28-4.27,2.64l.04.14c.14.28.32.44.52.5l-.1.3c-.35.26-.76.47-1.21.65l-.24.33.09,1.45c.51,1.29.94,2.2,1.22,2.75l-.14.02c-.28.15-.44.32-.51.52l-.4.22,1.2,1.86-.77.71-.07.45c.6.68,1.08,1.13,1.42,1.37,2.45,4.1,4.58,6.23,6.39,6.43l-.02.73c1.05.99,1.86,1.74,2.44,2.24.27.35.5.91.74,1.71.23.8.79,1.45,1.67,1.99.34.34,1.24.73,2.68,1.16,1.15.4,1.98.94,2.49,1.63.49-.08,1.13-.04,1.93.11.82.16,1.41.2,1.8.14l.64.33.07.44c.06.29.03.48-.04.59l3.34.6c.15-.22.26-.44.32-.65l.41-.21c.81.16,1.49.34,2.01.54.2.57.34,1.13.45,1.69.17,1.05.18,3.07-.01,6.04-2.72.77-7.76,2.56-15.11,5.38-8.03,3.04-12.63,5.05-13.85,6.05-1.46,1.14-2.26,2.26-2.37,3.34l1.31,3.32c1.75.49,2.82.69,3.2.63l.58-.1c1.04-.76,5.23-2.8,12.56-6.12,7.33-3.32,11.83-5.22,13.52-5.71l.26-.19.28-.05c.29.04.55.14.78.3,0,.5.38,3.08,1.18,7.75-.88.55-3.39,1.96-7.52,4.22-4.4,2.43-6.82,3.68-7.31,3.76-1.05.67-1.46,1.73-1.22,3.16.11.65.73,1.26,1.84,1.73,1.12.51,2,.61,2.63.3,5.93-3.18,10.02-5.35,12.28-6.52.48,1.09.79,1.98.9,2.64-.03-.18.02,1.03.18,3.65-8.07,3.35-12.59,6.14-13.59,8.38l.04.27c.15,1.45,1.82,2.34,5.02,2.68,4.01.49,6.11.77,6.32.84l3.3-.57.61.19c.59,1.17,1,2.08,1.21,2.73l-.21.48c.13.76.16,1.49.08,2.2-1.42.23-4.47,1.42-9.11,3.54-4.64,2.12-7.44,3.25-8.39,3.42-2.39.41-3.92.82-4.57,1.23-.67.41-.92,1.1-.76,2.04.37,2.11,1.94,3.51,4.7,4.21,2.31.3,4.61.59,6.91.88,6.16-3.62,10.1-5.51,11.83-5.71l1.29-.23c.38,1.71.71,3.32.97,4.86.86,5.04,1.05,9.29.55,12.71,2.7,7.68,5.4,11.55,8.17,11.55l2.16-1.1c.31-1.63.48-2.89.54-3.77-2.29-6.49-3.53-10.25-3.71-11.3-.6-3.44-1.13-5.78-1.65-7.08.1-.5.09-1.98-.03-4.41-.16-2.13-.09-3.38.25-3.73,1.13-1.37,4.62-3.17,10.49-5.4,5.84-2.22,9.82-4.36,11.93-6.38-.48-1.1-.86-1.87-1.12-2.31l-.13-.72c-3.52-1.56-6.69-2.09-9.54-1.6-1.44.24-2.44,1.2-3.04,2.87-2.67.46-6.18,1.7-10.55,3.73-.85-.35-1.3-.71-1.36-1.1-.03-.19-.02-.39.05-.59-.13-.76.32-2.31,1.41-4.66.09-.02,1.73-.5,4.89-1.43,1.97-.54,3.18-1.82,3.63-3.86-.62-1.36-1.39-2.07-2.29-2.11-.63-1.46-1.77-2.22-3.4-2.29-1.63-.06-3.24-.1-4.8-.14-1.44-.94-2.4-1.69-2.9-2.3l1.06-5.05c.55-.18,1.33-.61,2.35-1.27,1.01-.66,1.8-1.05,2.38-1.13.38-.08.72-.07,1.03-.04.51-.38,1.22-.35,2.06.09,1.33-1.41,4.33-2.53,9-3.32l.35-.5c.23.17.59.25,1.07.26l.58-.1c1.61-1.46,2.37-3.61,2.29-6.42,0-3.45.16-5.63.49-6.56l2.47-1.02c3.46.1,5.57.08,6.33-.05.28-.06.82-.24,1.59-.57.77-.33,1.38-.48,1.77-.45l5.11-.15c.79-.03,1.74-.56,2.83-1.59,1.09-1.02,1.58-1.91,1.47-2.68-.52-2.95-3.7-4.86-9.53-5.73ZM200.31,239.7c-.37,1.83-.72,2.92-1.05,3.27-2.83,1.27-4.29,1.97-4.35,2.08-.48.08-.87.1-1.18.05l-.33-.24c-.21-.64-.36-1.25-.47-1.83-.33-2.01-.08-3.61.79-4.86,3.29-1.44,6.12-2.38,8.5-2.78.6.59.94,1.22,1.06,1.88-1.27,1.21-2.25,2.02-2.97,2.43Z"/>
    <path class="st0" d="M160.3,270.89c-.94.31-2.32.28-4.14-.04-1.81-.31-3.12-.42-3.86-.29-2.77.46-8.58,2.95-17.42,7.44-2.12-1.47-3.46-3.86-4.03-7.16-.8-4.67-1.12-6.81-.95-6.42.12-.44.35-.76.71-.97,1.54.44,2.74.81,3.58,1.09,3.19.3,5.58.45,7.15.47,2.08-1.06,3.5-2.78,4.27-5.19-.12-.68-.53-1.89-1.21-3.6-2.08-1.2-3.68-2.01-4.82-2.37l-1.22,1.49-1.6-1.65-8.44.6-.67-1.37.11-1.92-1-3.23.79-.55,2.81,1.85c3.72-1.2,7.87-1.05,12.44.42l3.61-1.26c.69-2.24,1.29-3.96,1.76-5.19-.7-4.11-4.92-5.52-12.64-4.19-5.34.91-8.06,2.51-8.16,4.78-.31-.07-.61-.45-.92-1.11l-.14-.84c-.26-.93-.21-2.59.18-5,.36-2.4.74-4,1.09-4.76l1.03.88c.34-.33,2.6-.36,6.75-.1,3.32-1.84,7.27-6.55,11.87-14.12.95-1.86,1.67-3.32,2.18-4.39,2.42-3.11,3.53-5.15,3.37-6.09-.07-.43-.18-.75-.32-1.02l-1.09-6.39c-4.48-1.5-7.99-2.24-10.54-2.24-.27.06-2.27.54-5.94,1.45-2.64.59-4.47,1.4-5.47,2.43l-1.71-.55-.89.78-.86-.71-1.92.76c-1.45.24-3.48.09-6.12-.44-1.15.76-2.04,1.26-2.68,1.52l-1.35-1.9-1.79,1.59c-.72-.17-1.49-.69-2.32-1.51-1.34.78-2.72,1.59-4.15,2.39-1.43.82-2.3,2.3-2.63,4.48-.09.6-.05,1.54.12,2.86.18,1.31.07,2.56-.3,3.76,1,2.95,2.31,4.41,3.98,4.41,1.6,2.42,2.98,4.16,4.14,5.24l.4-.3c6.92,3.21,10.74,5.17,11.45,5.9.52-.37.91-.65,1.19-.83.2.1.44.27.67.51-2.27,2.79-3.49,4.85-3.66,6.14-.02.43.07.98.29,1.66.23.81.38,1.4.46,1.82-.15-.82.27,3.62,1.24,13.36.3,4.05,1.14,10.07,2.5,18.03.48,2.9,1.26,6.23,2.3,10.01-3.92,2.37-6.81,4.35-8.69,5.93-2.45,1.27-4.3,2.16-5.58,2.67-1.97,1.18-3.13,1.8-3.51,1.87-.2.03-3.06-.4-8.62-1.29-.29.06-.74.41-1.36,1.08-.61.68-1.07,1.04-1.36,1.09-1.88,1.03-2.92,1.81-3.13,2.33-.2.52-.05,2.31.47,5.33,2.15,2.75,3.55,4.99,4.24,6.7,2.65,2.95,4.7,5.08,6.1,6.38l6.78.1c1.15-1.32,2.18-2.2,3.08-2.64,2.2-2.65,3.74-4.8,4.62-6.53,1.79-1.57,3.24-2.61,4.33-3.07.41,1.21.71,2.37.9,3.46.25,1.5.52,3.82.82,6.96.29,3.14.56,5.46.82,6.96.17.97.76,2.15,1.78,3.52,1.19,1.77,1.95,3,2.24,3.65,1.94.94,3.69,1.42,5.26,1.43,1.68-.99,3.46-2.93,5.33-5.79,1.44-2.51,2.93-4.96,4.49-7.35,2.48-3.25,4.44-5.63,5.84-7.16.55-.23,1.42-.68,2.65-1.29,1.21-.64,2.2-1.02,2.96-1.15.59.03,1.11.16,1.54.37l3.04-4.55-.1-.62c-.47-3.32-2.56-5.79-6.27-7.4-3.08-1.32-5.95-1.75-8.61-1.29l-1.79.73.11.62c1.37,2.31,2.63,4.22,3.77,5.73-3.03,2.92-5.33,5-6.88,6.26-.49.51-1.42,1.73-2.76,3.65-1.03,1.45-2.09,2.41-3.18,2.87-.6-.6-.98-1.38-1.14-2.35-.06-.27-.19-2.78-.42-7.57l-1.35-3.58c.23-1.02.43-1.84.62-2.44.51-1.08,2.97-3.06,7.37-5.94,3.89-2.49,6.71-4.11,8.45-4.83,2.89-.92,5.04-1.57,6.44-1.96,3.46-2.71,5.94-4.91,7.42-6.58-2.37-2.41-3.78-4.01-4.2-4.78Z"/>
  </g>
  <polygon class="st1" points="254.08 325.48 217.08 326.18 216.37 289.14 253.4 288.45 254.08 325.48"/>
  <path class="st0" d="M243.74,301.89l.11.47-.12.7c0,.43-.04.99-.16,1.69-.12.91-.2,1.48-.22,1.63l-.74.35h-.18s-.18-.17-.18-.17c-.14.03-.27.09-.31.12-.52-.2-.89-.45-1.12-.71-.17-.61-.29-1.01-.4-1.3l.33-1.64-.16-.3c.04-.21.07-.51.11-.82.05-.3.11-.48.22-.53l-.09-.32c-.13-1.05-.24-1.59-.31-1.61.12-.08.24-.12.34-.13.15,0,.32.02.61.1.27.08.46.13.63.11l.06.23c.42.4.65.69.71.77l.12-.06c.33.24.61.47.81.6.01.06.05.15.08.21l-.15.61ZM250.9,303.51l.1-.19c-.09-.33-.16-.68-.22-1.01-.12-.45-.29-.75-.44-.89.04-.52-.15-1.09-.63-1.7-.53-.69-.8-1.21-.83-1.6l-.75-.36c.02-.2-.11-.4-.36-.61-.25-.22-.38-.42-.42-.57-.47.03-.83-.08-1.14-.41-.06.07-.13.12-.21.13-.06-.02-.18-.04-.37-.1-.18-.06-.3-.09-.41-.09-.05,0-.19.03-.44.06l-.17-.07c-.71.05-1.15.11-1.32.15l-.14.12c-.12-.06-.44-.05-.89,0-.39.04-.68.01-.79-.11l-.33.21c-.6-.06-.97,0-1.18.21-.21-.14-.43-.18-.67-.14-.09-.01-.17-.04-.2-.02-.24-.02-.46.06-.63.17l-.04.12c-.99-.02-2.53.71-4.63,2.24,0,.42.31.73.94.91.53.06,1.08.13,1.59.23l.23-.12c.05.25.11.47.16.74.07.31.21.47.46.5l-.05.09c-.05.03-.1.02-.14.03.14.23.24.43.24.65,0,.09-.03.19-.06.3-.04.13-.04.21-.06.29.02-.05.05.17.15.7.09.9.13,1.65.19,2.1.11,1,.51,1.9,1.1,2.69.67.89,1.47,1.32,2.35,1.25h.23c.14-.13.47-.28,1-.43.41-.14.75-.3.92-.51l.18,1.82-.12.73-.45-.39c.31.66.48.99.48,1.01l-.07.08c-.08.05-.14.04-.19.08l-.05.08v.08s.02.07.02.07v.11s-.08.15-.08.15c-.02.07-.03.16-.03.27l-.07-.07-.08-.04c-.02.08-.04.12-.02.08,0-.03-.03,0-.08.08l.09.11c-.07-.07-.15-.15-.2-.17h-.11c-1.28.5-2.23.88-2.87,1.18-1.39.51-2.45.83-3.18,1.03-.2.01-.59-.07-1.16-.15-.59-.09-1.02-.13-1.31-.12-.6,0-.94.27-.98.76.06.11.12.23.2.32.01.11.03.28-.01.55.55.92.84,1.4.86,1.42.38.46.82.76,1.36.86l.49-.22.58.02c.26-.14.51-.29.71-.45.36-.15.63-.25.82-.33,1.16-1.14,2-1.99,2.54-2.61.88-.87,1.56-1.48,1.99-1.88.01.22,0,.4.03.54,0,.2.06.35.16.53.25.8.41,1.38.47,1.72.35.6.52.96.53,1.03.14.16.25.31.38.4l.17.03.7.84.19-.12c.07-.15.16-.26.24-.37l.19.03.53.44c.16-.34.41-.52.74-.53.31-.48.46-1.17.46-2.11-.01-.19-.04-.52-.07-.89-.04-.43-.09-.72-.09-.92l-.06-.15c-.03-.09,0-.21.08-.35.02-.28.04-.43.07-.44l.08-.09-.12-.53c0-.22.03-.61.13-1.18.08-.54.18-.94.24-1.05l-.13-.3c.21-1.51.39-2.43.5-2.68l-.06-.29.15-.15-.09-.42c.28-.18.57-.31.78-.33.49.12.86.23,1.13.31.06-.12.08-.23.09-.3l.09-.05.33.08c.28-.6.62-1.11,1.03-1.54l-.28-.57ZM234.65,300.54l-.27.16-.38-.08c-.1.05-.29.21-.54.47-.24.29-.4.51-.43.63-.44.95-.67,1.74-.75,2.37-.07.42-.08.73-.08.98-.47,1.52-.72,2.39-.76,2.69-.02.31-.02.58-.02.74.1.33.17.55.23.69.05.24.09.39.12.51.33.53.59.9.79,1.09l.19-.02c.65.01,1.12-.4,1.41-1.14.13-.34.3-1.02.43-2,.11-.51.16-.88.23-1.17h.27c-.06-.17-.07-.31-.07-.44-.02-.24.05-.6.21-1.09.16-.49.22-.82.22-1.08l-.09-.68.12-.4c-.05-.8-.3-1.54-.81-2.26ZM231.35,316.66s-.02-.18-.05-.39c-.03-.16-.09-.29-.2-.42l.19-.44c-.2-.11-.4-.55-.6-1.31-.17-.52-.32-1.02-.44-1.55.09-.08.12-.15.13-.22l-.18-.84.1-.74c-.07-.02-.14-.07-.17-.16.02-.12.04-.23.06-.37l.08-.09.09-.03.03-.1c-.27-.47-.38-.84-.4-1.11,0-.12.01-.23.04-.36l.31-.39-.09-.21.06-.18-.09-.31.35-1.15c-.13-.05-.23-.13-.29-.21l-.09-.33.2-.28c-.35-.48-.49-.79-.48-.87l.21-.24c-.3-.66-.51-1.23-.65-1.67v-.23s-.46-.32-.46-.32v-.23s-.3-.09-.3-.09l.16-.37c-.04-.3-.23-.44-.54-.43l.05-.68s-.22-.15-.51-.29c-.2-.14-.34-.31-.43-.55l-.49.23c-.06-.11-.11-.2-.16-.26l-.08.02-.06.06-.41-.4h-.43s-.07.06-.07.06c-.07,0-.16-.02-.28-.02l.34-.39c-.05-.1-.07-.15-.1-.22-.14-.05-.24-.11-.29-.19v-.08s-.25.2-.25.2c-.14-.41-.35-.68-.59-.83-.32-.13-.51-.27-.53-.35l-.07-.12h-.07c-.04.11-.1.2-.19.28l-.11.07-.19-.29-.16.09-.15.25c-.68.03-1.22.16-1.65.43l-.1-.08-.15.07c-.09.11-.18.23-.24.38-.08.26-.08.43-.07.56l-.66.14c-.2.23-.35.4-.46.51,0,.26.08.5.22.71l-.2.19.04.11c.11.17.19.4.15.64l-.67.51c.13.35.21.65.24.88-.24.27-.35.56-.38.79l.16.16c.13.44.23.78.31,1.03l.23.07v.46s-.32.14-.32.14l-.05.17.21.37v-.13s.11-.06.11-.06h.05s.09.06.09.06c.03.25.13.42.28.59v.07c-.05.06-.08.11-.17.13l-.04.16c.15.27.21.47.24.6l-.09.25c0,.09.04.19.08.3h.41l.15.35-.23.28c.11.21.17.41.16.53l.07-.1c.12.13.23.22.31.29l-.12.08c-.04.09-.02.14.04.23v.11c-.06.11-.18.23-.31.34l-.03.14c.19.12.39.25.6.38.2.14.35.34.39.55l-.17.67.24.02c.18.07.27.29.27.61,0,.08-.01.14-.03.21h.28c.06.05.12.11.21.17-.05.24-.1.4-.11.53.23.08.37.31.48.7.13.38.25.61.41.7-.04.13.03.35.15.61.09.28.22.43.36.45.06.14.14.26.18.34.19.13.31.23.4.29.09.16.17.38.23.73.2.06.35.14.55.23.18.08.27.23.31.41.2.17.36.29.48.37.05.27.11.48.16.6l.09.11c.82-.02,1.45.26,1.93.77h-.05c.21.09.5.13.86.14h.73c.18.15.3.29.38.42l.19.06c.03-.09.04-.2.09-.31.36-.21.65-.38.85-.45,0-.2.02-.43.04-.7l.1-.09.37-.17c-.03-.18,0-.44.09-.76.06-.3.1-.52.11-.62l-.51-.32Z"/>
  <g>
    <path class="st0" d="M192.12,68.98c-.2.19-.44.93-.72,2.22-.28,1.28-.75,2.16-1.39,2.59l-.18.44c.05.24.11.46.16.7l-2.74,1.8-.48.84-1.28.08c-.51-.6-.82-1.53-.92-2.83-.1-1.28-.43-2-1-2.15-.17-.77-.2-1.49-.12-2.16l.82-6.89c1.29-.89,4.06-1.09,8.31-.56l.24.14c.1.54.14.84.13.91-.41,1.3-.69,2.92-.84,4.86ZM229.44,30.66c-.93-.72-1.75-1.33-2.44-1.88-.19.14-.31.15-.39.07-.24-1.46-1.37-2.61-3.37-3.46-.6-1.42-1.11-2.39-1.56-2.9l-1.39.06c-2.59-1.66-4.33-2.62-5.23-2.89-.91-.79-1.56-1.39-1.93-1.8l-1.19.41c-.82-.32-1.35-.84-1.6-1.54l-.37-.06c-2.53.67-3.97,1.74-4.31,3.2-.24-.09-.49-.17-.74-.2-.7.22-1.56.76-2.59,1.6-3.66-1.27-6.54-2.11-8.68-2.51l-1.54.14c-.62-.52-2.01-.91-4.18-1.18-3.66-.45-5.99.03-7,1.4l-.4.18c.58,1.49,1.37,2.91,2.4,4.24.14.24,1.25,1.5,3.34,3.79.54-.91,2.37-1.45,5.51-1.59l2.32.74c.24.03.62.04,1.13.03.5.06.83.09,1.01.12,3.84.31,6.7,1.86,8.55,4.64,1.73,2.47,2.34,5.4,1.84,8.79l-.12,1c-2.34-.88-3.76-1.47-4.21-1.75-.77.06-1.52-.07-2.24-.39-2.78-.03-4.92-.17-6.41-.43-2.81-.56-4.9-1.05-6.29-1.45l-3.17.07c-.15.51-.25,1.1-.33,1.77-.23,1.85.61,3.94,2.51,6.28,1.65,1.77,3.24,3.59,4.8,5.43l.66-.26.75.1c.21-1.11.79-1.63,1.71-1.61.66.09,1.33.17,1.99.25.76.02,1.38-.17,1.85-.57l.85.33c1.73-.32,3.02-.5,3.87-.55.18-.13.7-.55,1.55-1.28.56-.53,1.2-.87,1.89-1.01.09,2.04.2,3.56.33,4.55-.48.55-.76,1.12-.83,1.7-.09.68,0,1.33.27,1.96-.75.52-.93,1.39-.59,2.64-.42,1.38-.59,2.49-.52,3.31-.08,0-.17.03-.26.09-.08.06-.18.09-.26.08-1.54-2.66-3.89-4.18-7.05-4.58-.41-.04-.84-.06-1.26-.03-2.83,1.16-5.85,1.55-9,1.15-.17-.02-1-.49-2.49-1.43-1.72-1.11-2.66-1.71-2.81-1.81-.89-.34-1.53-.6-1.93-.8l.46-.74c-.13-.92-.23-1.53-.27-1.83l.27-.2c.17.02.34.05.5.07-.14-1.67-.72-2.54-1.72-2.59l-.26-.02-.21-1.28c-3.08-1.04-5.15-2.12-6.2-3.22-1.49-.26-2.06-.36-1.73-.33l-.75-.08c-.26.11-.46.27-.57.48l-1.56-.65c-.69.14-1.41.29-2.13.43-.75.14-1.28.48-1.6,1.05.25.71.24,2.25-.05,4.62-.05.44-.22,1.13-.51,2.08-.28.95-.45,1.63-.5,2.08l.19,1.6c-1.24,1.88-2.3,6.42-3.17,13.61-.53,4.44-.65,9.54-.33,15.29l-.89,2.04.53.97-.34.63.8,4.95c.15.09.35.19.59.29l.35.28c.38,1.01.72,1.83,1.03,2.42.31.61.87,1.07,1.68,1.39.56.22,1.34,1.1,2.34,2.64.3.27.59.61.89,1.02,2.01-2.61,3.59-4.54,4.74-5.74-.27-.48-.39-.87-.36-1.17.13-1.04.05-2.48-.24-4.32-.39-2.38-.59-3.87-.59-4.46-.34-4.94-.3-9.05.11-12.4.13-1.1.26-1.81.38-2.1-.06-1.59.76-4.81,2.43-9.63.27-.79,1.05-1.34,2.34-1.63.08-.59.21-1.02.42-1.3.09-.06.27-.12.53-.16.26,1.31.27,3.08-.01,5.29-1.3,10.67-1.35,17.4-.16,20.17.59,1.43,2.12,3.08,4.59,4.96l.93-.35.18-.43-.28-.71c.34-.11.68-.15,1.02-.1.17.02.44.1.8.22.37.11.63.18.79.19.33.04.59.08.75.09.16-.65.99-1.56,2.48-2.74,1.49-1.17,2.59-1.8,3.26-1.86l.73.31.37.05,1.87-1.81.24.03c1.79-1.43,3.25-4.46,4.4-9.05,1.03-4.39,3-7.38,5.9-8.99l-.35,6.96c-.01.14-.02.26-.04.33l-.57.5c-.03,4.51-.15,8.24-.35,11.23-.03.22-.03.78-.01,1.69.01.9.02,1.39,0,1.47l-1.65,6.33c0-.14.15,1.53.41,5,.31,6.44.94,10.99,1.89,13.66.56.21,1.24.79,2.01,1.71.78.92,1.66,1.43,2.65,1.56.23-.43.82-1.18,1.8-2.26.85-.89,1.41-1.64,1.66-2.28.31-1.24.75-2.01,1.3-2.32-.81-2.35-1.81-4.2-3-5.56.39-.48.4-1.15-.01-2.03l.37-.98c-.32-2.21-.42-3.88-.28-4.99.08-.06.26-.11.52-.15-.5-.66-.66-1.85-.46-3.56.17-2.09.24-3.32.2-3.7l.21-.65c-.15-.99-.39-1.7-.77-2.11-.05-.24-.03-.42.07-.56.17.01.42.05.75.08l.13-.09c-.77-.62-1.1-1.38-.98-2.28.05-.43.28-.86.65-1.27l.69.65c-1.14-1.8-1.51-3.27-1.12-4.42l-.04-.69.19-.54.42-.4.4-.06.18,1.61.1-.89c.18-.8-.04-1.43-.65-1.88l1.42-.29c-.34-1.39-.32-3,.09-4.82l-1-.13.81-.46.1-1.91-.9,1.14c-.09-.62-.13-.99-.1-1.15.02-.15.08-.33.18-.53-.02-.54.15-1.27.52-2.2.5-1.29.76-2.05.78-2.27l-.43-.61.05-.46.14-.1.06-.55,1.32-1.42c-.24-.25-.58-.44-1.07-.59l-.11-.12,1.59-.71c.87-7.17,2.95-11.4,6.22-12.67l.47.29.19-.55.53-.15c1.95-.07,3.4-.19,4.35-.38l.58.41c.62-.91,1.27-1.76,1.96-2.58.43-.71.73-1.79.9-3.28l.56-.38-.5-4.23ZM156.3,24l-.95-.41c-1.35-1.72-2.3-3.04-2.86-3.98l-.11-.46c-1.74-1.17-2.84-2.71-3.28-4.61l-2.3-.27.38-.38c-1.14-1.69-2.15-2.97-3.04-3.86l-.61-.37-.68.07c-.85-1.26-1.62-2.28-2.3-3.04l-.49-.2c-.64-.27-.98-.6-1.04-.99-.63-.37-1.1-.57-1.43-.62-1.42-1.13-2.42-2.08-3-2.83l-1.13-.28-.69.2c-4.79-.87-6.7-1.24-5.71-1.12-.88-.12-2.55-.07-5.02.12l-1.24-.74c-1.46.02-2.51-.06-3.15-.23l-1.06.45c-2.53-.3-5.05.31-7.57,1.85-2.53,1.53-3.92,3.39-4.18,5.59-.16,1.43.72,3.72,2.67,6.85,1.64,3.01,3.16,5.13,4.57,6.36l.2,2.5c4.51,1.32,7.88,3.42,10.08,6.3l1.94.53.24.76,1.16.14,3.01,2.69.85-.04.73.82,1.52-.1-.02.13c.28.43.47,1.12.58,2.1,1.69-.18,4.05.54,7.08,2.17l.97.26.51-.08.41-.68c.64.18,2.07.74,4.3,1.68,1.9.82,3.39,1.24,4.52,1.28l.98.12c1.78,1.87,3.22,3.2,4.35,4.01l5.16-1.26c1.04-3.06,1.56-4.69,1.59-4.89.14-1.24-1.83-6.4-5.95-15.52ZM145.27,64.76l.2-.65c-.95-.56-1.48-1.42-1.58-2.56l-2.21-1.74c-.9-1.54-2.46-2.96-4.67-4.28-3.14-1.96-4.94-3.12-5.4-3.48l-.92.23-1.05-.69-.75-.1c-.36.11-.59.28-.7.48l-1.07-.58c-.27.04-1.05-.01-2.39-.18-.96.26-1.91.49-2.86.66-.65.45-1.06.76-1.24.93-.2.16-1,.46-2.39.89-.88.27-1.36.85-1.47,1.74-.15,1.19.54,2.83,2.04,4.93,1.52,2.1,2.95,3.23,4.28,3.39l.94,1.7.95.55.62.08,1.56.75.79-.35.65.98.88.1.77.88c.4.2,1.18.38,2.35.51,1.17.14,1.97.43,2.44.86l.79-.25.7-.48c.67-.07,1.8,0,3.38.18l1.24.16c.22.17.38.38.44.62,1.43-1.41,2.74-2.42,3.91-3.03l-.23-2.28ZM136.6,89.31c-.82-1-1.81-1.54-2.98-1.61l-.75-.09-.93.34c-1.28-1.28-2.31-2.17-3.1-2.62l-.75-.09c-1.4-.25-2.19.41-2.39,1.96-.22,1.78.45,4.18,1.98,7.18,1.54,3,3.14,4.95,4.8,5.82,2.01-1.34,3.83-2.39,5.45-3.17.19-2.91.51-4.53.97-4.85-.74-.91-1.51-1.87-2.31-2.86Z"/>
    <path class="st0" d="M176.38,164.89l-.06-.08-.11.21.03.32.12.25.26-.66-.23-.04ZM217.62,142.65c-.97-.66-2.5-1.57-4.56-2.71-2.47-1.36-3.97-2.01-4.49-1.93-.15-.07-.3-.14-.44-.21-.1-.02-.25,0-.43.04-.19.06-.32.07-.36.07-.67-.1-.94-.17-.84-.2l-.2.35-.38-.05-.43.25c-.31,0-1,.03-2.05.08-.84.04-1.49.01-1.95-.05-.46-.08-1.1-.19-1.93-.36-.83-.18-1.46-.3-1.87-.36-2.4-.36-3.86-.51-4.39-.43.66-.94,1.07-1.9,1.2-2.87.25-1.64.63-2.88,1.15-3.74.52-.86,1.47-1.71,2.85-2.55l.05.25.21.11c1.69-.48,4.5-.63,8.44-.46,3.72.19,6.39-.03,8.01-.68,1.19-.61,2.05-1.14,2.58-1.57l.31-1.05-.47-.46c.19-.24.4-.49.65-.77l.24.04.26-.67-.45-.69-.54.94c-.15-.29-.31-.52-.43-.7v-.08s.32-.51.32-.51l.77.05.36-.27.68.1c-.3-.41-.79-.77-1.48-1.09.18-.23.31-.47.35-.72-.49-.28-.87-.47-1.17-.56l-.33-.37-.03-.32c0-.11.04-.18.11-.22-1.3-1.04-2.78-1.67-4.41-1.91-.21-.03-.53-.04-.94-.03-.42.01-.7.02-.86-.01l-.42-.3c-.1-.01-.49-.05-1.16-.11-.47-.01-.87.09-1.22.3-.09-.01-.28-.03-.53-.08-.1,0-.28-.09-.52-.22-.23-.14-.41-.22-.5-.24-.67-.1-1.66-.19-2.97-.28-1.32-.09-2.32-.19-2.98-.3-.21-.33-.7-1.51-1.5-3.51-.57-1.44-1.27-2.53-2.1-3.28-.7-.52-1.24-.89-1.64-1.11l-.39.09c-.49-.28-.79-.52-.91-.76l-.23-.03-.79.03c-1.15,1.14-1.74,1.8-1.77,2.01-.05.25.13,1,.52,2.23.39,1.23.6,2.11.62,2.63-.35.27-1.04.35-2.07.24-1.18-.12-1.96-.13-2.34-.04-.14-.07-.37-.14-.68-.17l-.23-.04-.15-.09-.63.06c-.64-.31-1.1-.54-1.39-.68h-.46c-.11,0-.23-.03-.39-.06-.15-.06-.27-.11-.37-.13-.23.07-.39.18-.52.31l-.24-.51c-.14-.07-.27-.11-.37-.13-.45-.07-.74.05-.84.34l-.2-.19c-.07-.22-.22-.37-.4-.46l-.41.17c-1.2-.38-1.97-.83-2.3-1.36-.52.29-.89.5-1.12.62-.58-.65-1.4-1.07-2.47-1.23-.14-.12-.25-.19-.36-.2-.26-.04-.56.19-.89.73-.17-.6-.53-1.01-1.07-1.23-.54-.21-1.08-.38-1.63-.51-1.16.08-2.04.18-2.64.31-.1.66-.63.92-1.6.78-.88.7-1.53,1.29-1.91,1.75l.12.8c-.9.08-1.38.14-1.44.18-.13.18-.22.38-.24.58l.22.11c.46.07.77.18.97.31.07.54.14.98.18,1.35-.94.08-1.48.1-1.57.08l-.11.15-.06.38-.3.42-.04.31c.27.98.44,1.91.51,2.82.48-.04.85.25,1.13.87.4.79.69,1.28.88,1.46l-.07.37c.45.53.87,1.08,1.26,1.61.52.7,1.03,1.12,1.53,1.24.89,1.03,1.77,1.8,2.63,2.35l.99-.4.29.59.26-.11c.33.21.59.37.78.5.43-.08.78-.16,1.05-.22.49.52.92.9,1.25,1.08.35.18.73.35,1.18.52l.31.52c.31-.01.6-.07.89-.19l.71.51.19-.21c.32.31.52.52.61.63l.49-.23c.59.29,1.21.59,1.91.91.63.67,1.07,1.18,1.33,1.54.26-.64.66-.92,1.22-.83,2.35.35,3.77.61,4.26.79l.81-.67.81-.19.45-.32c.42,1.01.62,1.97.65,2.91-.02.15-.2.39-.54.7-.33.31-.49.58-.47.79l.08,1.57c-4,.24-6.28.42-6.82.55-2.62.43-4.5,1.48-5.63,3.15l3.09.76c.81,2.27,1.4,3.88,1.78,4.81.16.66.48,1.25.99,1.8l-.07.45c-1.89.04-2.72.07-2.52.09-.3-.04-.71-.18-1.23-.42-.51-.22-.92-.37-1.22-.41-.47-.07-.76-.08-.86-.02-.12.07-.21.17-.28.32-.24.17-.38.38-.41.63-.07.47-.05,1.05.06,1.73,1.1,2.01,1.87,3.55,2.28,4.66-.58.33-.99.5-1.26.51l-.11.85.68.1-.72,1.69c.1,2.46.39,4.18.88,5.15l1.29-.29,1.01.62.11-.77c.14-.29.94-.33,2.36-.11.45.07.76.12.92.14.25.35.35.74.29,1.15-.12.82-.41,2.06-.87,3.74-.45,1.68-.75,2.94-.87,3.75-.21,1.42.33,3.02,1.63,4.78l.36-.81.26-.19c.23.24.4.46.54.63l.26-.19c.08-.51.16-.89.25-1.14.6-.91.87-1.57.85-1.99.24-.28.43-.49.56-.62-.43-.95-.42-2.88,0-5.8.19-1.28.55-2.26,1.07-2.97l1.03-.16c1.54.49,3.72.32,6.5-.51.05-.37.21-.81.48-1.33.26-.55.44-.97.54-1.26-.83-1.01-1.97-1.68-3.38-2.03-1.4-.34-2.76-.67-4.08-.96.23-.86.78-1.37,1.64-1.56.84-.04,1.68-.09,2.53-.17l.5.31c.15-.29.37-.56.67-.8.3-.25.5-.57.62-.97l.18-.2c.5-.18.82-.38.95-.56-.42-.68-.84-1.37-1.26-2.02-.42-.67-1.08-1.2-1.96-1.59,2.56-4.53,4.05-7.04,4.49-7.55l1.19-.13c2.72.67,4.61,1.32,5.66,1.95.03.53-.05,3.65-.22,9.36-.14,4.47.14,7.31.84,8.5-.12.2-.15,1.37-.05,3.52-.31.63-.54,1.11-.69,1.46l.4.46-.28.9c.07.53.11.83.11.88l-.68.84c1.05,2.04,1.81,3.58,2.29,4.65.2-.02.58.13,1.1.48.3.41.51.75.63,1.03l.44.15.55-1.02c.79-.03,1.39-.05,1.8-.03.08-.52.07-.85,0-1.02.28-.48.51-.84.71-1.07l-.12-1.28.08-.54c.05-.08.17-.15.33-.18-.16-.33-.23-.75-.2-1.27.1-1.14.1-1.79-.02-1.97l.21-.43-.3-2.16.14-.38c-.3-.5-.41-.9-.38-1.15-.03.2.25-.82.85-3.07.11-.41.13-1.14.06-2.19-.08-1.06-.08-1.76-.05-2.12-.02.1.47-2.05,1.44-6.44,1.19-.25,2.1-.31,2.77-.21.16-.03.61-.15,1.31-.35.54-.18,1.02-.25,1.44-.18.07-.15.19-.62.36-1.45.15-.6.39-1,.73-1.2-.76-1.95-1.61-3.25-2.59-3.92ZM175.71,165.74l-.48-.46.09-.53c-1.46,1.34-2.52,1.97-3.19,1.87-1.37-.21-2.4-2.19-3.1-5.95-.59-3.11-.72-5.59-.46-7.43.05-.3.09-.75.13-1.35.04-.59.08-1.04.12-1.34.11-.77.61-1.56,1.49-2.36.87-.81,1.37-1.36,1.46-1.66.36-1.05.63-1.84.83-2.39-.19-1.18-.4-2.41-.63-3.7-.22-1.28-.84-2.27-1.83-2.93-.82-.53-1.54-.86-2.21-.96-.36-.05-.8-.02-1.33.08-.54.1-.94.14-1.19.09-.36-.31-.62-.55-.75-.72l-.25.04-.05.37c-2.14-.05-3.34.84-3.61,2.68-.11.71-.34,1.77-.67,3.15-.34,1.39-.56,2.44-.67,3.15l-.22,3.57.52.23.17.42c-.03,1.31-.07,2.57-.1,3.82,0,1.77.29,2.77.89,2.95l-.41.65c-.08,1.6.52,3.79,1.8,6.57,1.28,2.78,2.55,4.67,3.81,5.69l.16-.05c.37.32.63.55.8.71.16.16.47.32.98.49.49.18.86.42,1.08.71l.34-.18c.69-.1,1.14-.22,1.34-.35.19-.13.54-.45,1.06-1.01l.39-.1.15-.44.76-.36-.67-.26c.41-.56.78-.98,1.13-1.23.16-.03.35-.09.57-.15.22-.08.38-.16.51-.25.54-.5.81-.74.81-.74,0,0,.16-.11.45-.32ZM174.22,167.79l-.84.97.82-.27.02-.7ZM189.79,148.98c-1.16.08-2.03.14-2.6.14-.2-.12-.49-.22-.9-.28l-.07-.08c-.05.35.3-.7,1.02-3.14,0,.06.12-1.31.38-4.1,1.07-.2,1.86-.24,2.37-.11l.46.06c.51.71.87,1.33,1.05,1.87-.79,2.18-1.36,4.05-1.7,5.63ZM181.26,157.33l-.15-1.04c.46-1.02,1.15-1.47,2.07-1.33,1.28.19,1.85,1.04,1.73,2.53-1.61-.03-2.83-.09-3.66-.16Z"/>
    <path class="st0" d="M189.9,414.55v-.13s.03.32.03.32l.25-.11-.28-.09ZM192.06,385.15l.08-.41c-2.3-1.17-5.8-1.34-10.51-.48l-4.86.89-2.38.14-.61.36c-.44-.03-1.59.07-3.41.29-1.45.16-2.53.08-3.24-.27l-.49.41-1.06-.45-.42.32c-.06-.13-.12-.22-.17-.31-.64-.18-1.01-.32-1.07-.44-.63-.08-1.15-.12-1.53-.11l-.19-.3c-.62.04-1.08.08-1.39.13l-.64-.38-.36.25c-.7-.16-1.13-.26-1.31-.28-.08.09-.11.2-.09.29l-.3-.23-.41.34c-.42-.09-1.26.1-2.52.55-.49.31-.86.53-1.1.7-.04.27-.28.66-.7,1.16l.37.68-.17.3c-.02.49,0,.84.02,1.06l.54,1.46-.14.42.03.26c.19.38.4.58.63.64l-.18.15c-.03.14.24.62.8,1.42l.2-.03c.41.43.72.74.93.94,1.66.78,2.88,1.4,3.66,1.87l.39-.13c1.4.5,2.45.84,3.13,1.02l.49-.28.13-.02c.35.31.65.47.87.48.64-.19,1.16-.17,1.6.04l.26-.05c.01.1.07.18.16.25l.22.1c1.11-.25,2.06-.28,2.84-.14.84-.3,1.48-.52,1.9-.67l1.37.21c.37-.19.63-.33.8-.45v-.4s-.18-.44-.18-.44c.14-.77.97-1.4,2.45-1.88.82-.48,1.43-.87,1.83-1.2,1.79-.8,2.98-1.28,3.55-1.47.57-.2,1.78-.46,3.63-.83,1.73-.33,2.92-.64,3.58-.91.65-.28,1.19-.6,1.62-.97v.07s.16.11.16.11h.12c.34-.43.61-.72.8-.94l.05.32.35-.38-.46-.4.1-.21c.35-.1.6-.16.78-.19l-.18-.3c-.03-.17,0-.5.06-1.01l.14.05.14.05.19-.09-.9-.67ZM192.06,398.98c-1.62-.42-3.03-.7-4.25-.85l-.31.18-.67-.03c-.87.44-1.53.73-1.94.87-.04.06-.56.91-1.59,2.57-1.02,1.65-1.57,2.58-1.63,2.76l-.99-.39c-.99-1.01-1.87-1.69-2.61-2.03l-.08-.51c-1.13-.69-1.77-1.3-1.94-1.86-1.4-.5-2.44-.93-3.11-1.28-1.42-.05-2.48-.11-3.15-.15-.17.07-.53.19-1.09.36-.28.08-.67.34-1.15.76-.2.75-.27,1.38-.2,1.89.15,1.06.66,1.93,1.51,2.66,1.84,1.33,3.25,2.3,4.22,2.92,2.61,2.1,4.06,3.25,4.35,3.44-.79,1.26-1.6,2.55-2.43,3.87-1.02,1.62-2.01,2.73-2.99,3.36l-.53.02.02,1.06.14.52c-.21.43-.21.96-.03,1.6-.06.14-.1.27-.08.41.08.51.35,1.05.83,1.62l.42-.34.15.12.08.52.18.31c.28-.17.67-.12,1.15.16-.02-.71-.02-1.08-.03-1.12.12-.02.24.05.36.21.39-.99.6-1.55.62-1.69.23-1.19.34-1.8.33-1.85.2-.51.63-1.04,1.31-1.58l.12-.56.25-.09-.16-.25.11-.15c1.02-1.31,1.74-2.35,2.16-3.11.35-.31.6-.56.76-.71l.39-.06c.64.18,1.21.58,1.7,1.22.86.98,1.32,1.49,1.42,1.52.54.42.99.71,1.32.88.51-.22,1.12-.09,1.85.33l.2-.43.56.65.24-.62c.01.09.11.05.31-.11.03-.09.11-.21.26-.33.13-.14.23-.25.31-.35l.06-.07c.08-.06.17-.13.27-.21.1-.08.17-.19.2-.33.08,0,.18-.02.31-.04-.24-.1-.37-.28-.4-.55-.01-.04,0-.12.01-.27,0-.13-.03-.24-.05-.33.04-.09.09-.17.17-.22l.15.11-.24-1.63c-.48-.29-.77-.69-.84-1.21-1.53-1.42-2.84-2.61-3.91-3.57.74-1.67,2.08-2.63,4.04-2.91-.26.04.22.13,1.43.26,1.63-.77,2.83-1.37,3.61-1.79l.27-1.77c-.82-.77-1.41-1.36-1.78-1.82ZM207.6,423.1c-.56-.08-.91-.26-1.05-.55-.2.07-.42.11-.65.09l-.14-.45c-.82-.2-1.52-.31-2.11-.36l-.56.28c-1.11-.29-1.85-.41-2.25-.35-.53-.27-.92-.51-1.16-.69-.51.16-.84.45-1,.88-.16.41-.33.83-.49,1.25l-.94-.06-1.54.43-.05.07c-.13.03-.36,0-.69-.02-.34-.05-.56-.06-.65-.05l-.13.02c-.25.12-.43.24-.55.35-.64-.17-1.06-.24-1.23-.22-.12.11-.19.2-.23.29l-.12.09-.57-.25-.38.12-.16.29h-.33s-.49-.21-.49-.21l-.31.12c-.07.19-.12.28-.15.28-.74-.11-1.09-.17-1.03-.18l-.33.05-.27.36-.43-.2-.32.12h-.86s-2.31.65-2.31.65c-.3.08-.62.02-.96-.2-.41.24-1.05.42-1.91.54-1.48.22-2.35.34-2.61.38-.34.1-.87.28-1.59.56-.72.27-1.27.45-1.65.5-1.53.22-2.42.37-2.7.45-.28.09-.78.27-1.53.55-.73.28-1.28.45-1.62.51-1.05.15-1.73-.17-2.07-.98-1.49-1.42-2.36-2.98-2.6-4.68-.1-.74,0-1.31.28-1.7-.42-1.05-.43-1.91-.04-2.59l-.03-.2c-.14-.07-.25-.15-.3-.23-.07-.52-.07-.7,0-.53.1-.29.18-.49.24-.64-.17-.24-.3-.71-.4-1.4-.36-2.53-.47-5.01-.34-7.48,0-.23.17-.82.49-1.74.24-.79.34-1.33.3-1.63-.12-.74-.88-1.54-2.29-2.4l-.12.08c-.17.03-.27.05-.33.06l-.11.13-.6-.04c-.71.64-1.07,1.67-1.09,3.09.08,1.11.15,2.22.21,3.36,0,2.44-.01,4.27-.01,5.47.51,5.96.74,11.13.7,15.47-1.13.75-1.63,1.58-1.5,2.49,0,.13.11.41.31.82.14.37.2.7.14.98.02.12.09.31.22.56l-.03.27c.3.27.53.48.68.63l.12.38,1.13.51c.1.39.34.64.75.8.4.13.81.29,1.23.46.73.42,1.46.86,2.18,1.28.92.52,1.71.74,2.43.64.78-.11,1.14-.16,1.11-.16.13.02.27.1.42.2l.64-.63.13-.55c.53-.92.86-1.7.99-2.34l-.18-.37c2.1-1.46,4.25-2.61,6.42-3.45l.48.06.2-.42.17-.23.2-.02c.84-.29,1.42-.56,1.76-.78.12-.02.82-.12,2.07-.3l.33-.05.14.05c2.17-.32,3.6-.67,4.31-1.09.76.07,1.31.12,1.68.16l.56-.29-.04-.26.18-.15.32-.04.05.38.52-.06-.15-.12-.07-.11.03-.14.2-.03.13-.08s.11.05.22.16l.03.2.15-.35.22.1.03.27c.39-.11.65-.26.81-.46l.18-.09c.13.02.26.1.37.2l-.05-.26.04-.2.18-.15.27.02.83.68.17-.29.51-.15.23-.16.52.39.55-.34.43.2c.02-.14.05-.24.08-.34.08-.01.18.01.27.06.1.06.18.1.23.13l.2.03.35-.38c.13-.02.24.03.35.15l-.02-.14.05-.14.12-.09c.29.19.52.31.65.38,1.86-.35,3.08-.46,3.68-.33l.5-.21c.11.16.26.27.45.33.4-.33.69-.59.89-.79.13.03.28.06.42.14l.17-.23c.23.09.45.23.66.37l.26.03.17-.22.18-.62.31-.12c.37-.46.66-.8.85-1.05l.32-.05c-.19-.11-.34-.28-.47-.53l.03-.2.77-1.17c-.27-.36-.69-.58-1.25-.65Z"/>
    <path class="st0" d="M218.62,352.02c-.18,1.49-.19,2.51-.02,3.07l-.21-.51c-.59.8-.89,1.84-.87,3.11,0,1.29-.14,2.2-.41,2.73l-.28-.49-.34,2.18c-.56.17-.92.55-1.09,1.15-.27.88-.63,1.53-1.06,1.96l-.02.33-.66.03c-.08.1-.2.18-.37.24l-.1.23-.03.27-.4-.08c-1.45,1.09-3.36,1.82-5.76,2.16-2.35.34-5.21.46-8.6.37-3.69-.09-6.51-.43-8.46-1.05-.88-.23-1.66-.74-2.35-1.53-.68-.65-1.22-1.5-1.63-2.56-.54-1.25-.93-2.06-1.15-2.43.2-.47.4-1.84.61-4.08-.6.09-1.2.17-1.76.26-.78.11-1.25.33-1.43.67-1.09-.2-2.09-.95-2.98-2.24-.79-1.16-1.27-2.36-1.45-3.59l-.37-.21c-.04-.3-.17-.75-.41-1.3-.23-.56-.38-1-.42-1.3-.01-.1,0-.22,0-.35.37.04.91-.17,1.65-.63.53.01,1.32.07,2.36.19.29-.13.91-.7,1.88-1.73.32-.22.77-.62,1.35-1.19.41-.55.57-1.26.5-2.14.12,1.18-.01.42-.4-2.28-.01-.13-.02-.32,0-.56,0-.24,0-.44-.02-.57-.12-.82-.66-2.3-1.64-4.42l.04-.67c1.41-.38,2.18-.59,2.31-.6.4-.06,1.4.18,3.04.7.48.55.95,1.12,1.44,1.68.49.58.82,1.23,1.02,1.95l-.18.63.29.69c.48-.38,1.22-.92,2.23-1.65-.26-2.49-.58-4.96-.93-7.39-.18-1.26-.49-3.15-.95-5.66-.44-2.5-.75-4.39-.93-5.65-.06-.44-.3-.96-.71-1.59-.4-.63-.62-1.05-.64-1.27-.03-.18-.03-.44-.01-.8.02-.36,0-.6-.02-.72.5-1.23,1.26-1.92,2.31-2.07l1.2.03.32-.11c.23.05.77,0,1.65-.11.74-.15,1.33-.03,1.78.34l.02.6.84.74c-.13.33-.2,1.23-.22,2.69-1.1,1-1.68,2.45-1.77,4.33.02,1.64.05,3.27.11,4.9l.2.51c-.41.55-.45,1.97-.13,4.28.06.4.12,1.01.18,1.85.05.82.11,1.47.17,1.89l.2,1.38c.47-.12.95-.25,1.45-.37.49-.14.9-.44,1.23-.88l1.31-.59.5.19.42-.39c.7,0,1.78.02,3.2.07.41.13,1.05.23,1.9.33.11.11.49.5,1.17,1.16.52.5.8.92.85,1.27.03.22.02.64-.02,1.27,0,.53.05.97.19,1.31l-.83.72h-.52c-.22.3-.57.51-1.06.62-.81,1.09-1.51,3.64-2.09,7.62-.5,3.4-1.16,5.17-2.04,5.29l-.97.14c-1.04-.79-1.72-1.49-2.03-2.11-.13-.24-.38-1.16-.76-2.72-.38-1.57-.56-2.26-.54-2.09-.02-.18.03-.54.18-1.09l.66-.03.16-.29c-.03-.17-.08-.32-.14-.43l.08.12s.2-.12.49-.34c0-.23.07-.9.17-2.02.05-.86.04-1.52-.03-2l-.15-.57c-1.47.61-2.25,1.18-2.35,1.74-.27,1.24-.36,2.75-.27,4.56.05.36.08.89.08,1.59-.1,1.36-.16,2.07-.15,2.15.1.69.49,2.11,1.21,4.23.08.29.06.93-.04,1.9-.11.97-.25,1.63-.4,2.02-.83-.2-1.62-.7-2.35-1.5-.75-.81-1.17-1.65-1.29-2.51-.12-.83-.25-1.91-.41-3.27-.16-1.75-.28-2.85-.34-3.28.18-.02.36.04.53.19.18.15.37.32.57.51.23-1.81.23-3.52,0-5.13-.7.46-1.15.79-1.4,1-.43.37-.76.82-1,1.35,0,.09-.08.42-.26,1-.18.58-.29.95-.3,1.13.07,1.15.09,2.58.03,4.33-.42,1.75-.53,3.26-.34,4.58.06.47.31,1.08.73,1.82,4.79,2.55,10.81,3.31,18.02,2.27,2.3-.33,4.35-1.56,6.13-3.68,1.35-2.01,2.71-4.03,4.05-6.05l.24.25ZM176.64,340.15c.1.64-.16,1.35-.76,2.1-.44.6-.92,1.17-1.41,1.73-.23.58-.59,1.33-1.07,2.28-.37.5-.75.98-1.13,1.43-.22.34-.51,1.34-.9,3,.55,2.28.91,4.06,1.1,5.37l1.66,4.15c-.03.98-.26,1.75-.67,2.29.81.77,1.29,1.56,1.41,2.33.2,1.44.11,2.7-.26,3.84-2.9,2.01-4.47,3.97-4.67,5.86-1.53.56-2.1.83-1.76.79-.63-.05-1.58-.2-2.86-.46-1.56-.63-3.18-3.01-4.89-7.16.1-.59.46-1.3,1.09-2.16.46.12.78.23.99.32l.36-.24c.3-.05.77.03,1.39.23.64.2,1.11.28,1.46.23-.12,0,.91-.56,3.09-1.71.38-.09,1.01-.26,1.86-.48.47-.14.9-.51,1.31-1.05-.37-.17-.93-.44-1.64-.83-.26-.58-.77-1.13-1.5-1.65l-.13.02-.08-.52.33-.05c-.13-.2-.31-.49-.59-.85.41-.59.53-1.4.38-2.45-.37-2.57-.73-4.13-1.08-4.71-.39-.3-.95-.39-1.67-.3-.72.11-1.19.08-1.44-.12l-.11-.25.2-.43-.09-.18c.18-.03-.4.04-1.7.18l-.36.25c-.31-.21-.79-.53-1.47-.92-.17.03-.33.08-.44.13-.28-.09-.58-.49-.91-1.2-.33-.18-.67-.36-1-.55-.34-.2-.65-.23-.95-.1l-.18-1.18c-.6-.22-1.41-.52-2.45-.91-.31-.31-.68-.66-1.09-1.05l-.13.04-.05.14.05.26c-.37-.57-.83-1.03-1.41-1.4v-.07c-.03-.13-.07-.23-.12-.32-.19-.1-.48-.26-.87-.47-.07-.22-.12-.39-.13-.52l-.04-.26c.07-.14.28-.4.62-.76-.29-1.11-.45-1.79-.49-2.06-.02-.09,0-.21.05-.37.04-.17.06-.29.05-.38-.04-.25-.26-.76-.68-1.49l.6-2.23.37.22c.38-.42.65-.82.81-1.25l1.51-.55c.04-.09.1-.2.19-.33.09-.13.53-.22,1.32-.29l.37.21.77-.64.2-.03.97.73.5-.21.16.19c.28.08.55.3.83.68l.05-.07c.02-.14.08-.21.18-.23l.07.06.11.32,1.21.09c.4-.32.65-.49.79-.52l.21.1c.06.13.16.22.31.29l1.11-.62.2-.03c.14.06.31.16.47.3.18.13.52.3,1.03.48.15.07.33.07.53,0,.1-.2.19-.85.26-1.97.13-.28.51-.48,1.12-.55,1.13-.17,2.2.14,3.2.92,1,.8,1.53,1.76,1.61,2.91,1.18.49,2.24,1.01,3.21,1.54l.03.26c0,.32.24.77.7,1.37.47.6.72,1.09.78,1.49Z"/>
    <g>
      <path class="st0" d="M96.9,142.1c-.44.46-.9.7-1.36.72l-.69-.21c-.55-.44-1.01-.7-1.41-.78-1.05.65-1.89,2.75-2.49,6.29-.47,2.56-.91,5.1-1.3,7.65l-2.18.05-.34.12-.11.36-.09.57-.48-.09c-.23-.07-.39-.22-.46-.45l-.36-.1-.44.58-.6-.56-.68.24c-.55-.22-.89-.59-1.07-1.12-.16-.53-.33-1.03-.5-1.49l-1.74.05c-.88-1.52-1.59-2.54-2.15-3.07-.87-.97-1.93-1.55-3.15-1.76-.39.33-.73.52-1.02.6-.39-.3-.78-.44-1.16-.44l-.35.13c-.93-.13-1.7-.18-2.31-.17-2.92.08-6.14.47-9.66,1.17-5.06.89-8.11,1.43-9.18,1.61-4.75.51-10.39,1.46-16.87,2.85-1.29.57-3.14,1.38-5.54,2.45-2.4,1.06-4.08,2-5.07,2.78-1.2,1.26-2.94,3.09-5.27,5.45h-.23c0,.17.09.35.25.58,0,.15-.02.34-.1.57,0,.24,0,.38,0,.46,0,.39.06.97.16,1.79.09.8.15,1.43.16,1.89l.03,1.04c-.53.16-1.11.9-1.74,2.18-.61,1.28-1.23,2.13-1.83,2.52-2.35-1.47-4.01-2.2-5.01-2.18-.49-.67-1.6-1.8-3.37-3.37-1.77-1.57-2.92-2.46-3.47-2.68-2.25-4.24-3.39-6.95-3.43-8.1-.06-1.76.23-2.86.84-3.26l-.37-1.03.44-.58c-.09-.24-.13-.61-.13-1.16l-.12.11c.07-.22.18-.56.32-1.03l.33-.36c-.09-.46-.37-5.69-.86-15.67-.08-.37-.19-1.04-.34-2-.14-.96-.22-1.66-.22-2.13l.37-3.13c.07-.31-.11-1.38-.54-3.22.21-.7.57-1.62,1.09-2.79.3-.16.55-.28.79-.36-.16-.23-.29-.53-.37-.92-.02-.77.22-1.71.74-2.83.5-1.13,1.1-1.72,1.8-1.73.38,0,.9.16,1.56.54.67.36,1.12.58,1.35.66,1.1.89,2.51,2.04,4.24,3.46,1.08.51,2.18,1.14,3.27,1.88.46.07,1.19.28,2.21.64.57,1.06,1.36,2.66,2.43,4.79-.07.31-.32.65-.77,1.05l-.23.47c.96,1.35,1.46,2.96,1.51,4.8,0,.46-.1.89-.32,1.27-2.57,1.53-3.8,4.15-3.71,7.82.01.54-.08,1.35-.23,2.44-.18,1.07-.24,1.89-.24,2.42.03.54.12,1.16.28,1.84,2.21-.82,5.95-1.99,11.21-3.51,6.1-1.85,9.5-2.7,10.19-2.57,1.06-.65,2.89-1.15,5.5-1.52,2.98-.46,4.97-.89,5.96-1.3l-1.3-1.35c-.61.01-1.4-.38-2.34-1.21-1.19-1.04-1.83-1.65-1.95-1.8-.12-.15-.43-.87-.91-2.17-.08-.07-.4-.14-.93-.19-.74-1.38-1.65-2.58-2.75-3.63-.17-.84-.04-2.11.37-3.81-.23-.15-.51-.37-.82-.68l-.25-.46,1.02-.94c-.16-.47-.15-1.36.05-2.66l-1.66-1.58.31-1.04c-2.16-3.18-3.15-5.97-2.97-8.36l-1.06-.65c0-.31.06-.74.19-1.29l-.12-.22.12.11.11-.12c.15-.16.27-.16.34,0-1.41-1.04-2.13-2.64-2.19-4.79.14-.55.33-1.15.52-1.87-.31-.52-.84-1.32-1.56-2.37l-.82-.22c-.01-.53-.32-1.35-.92-2.46-.61-1.09-.91-1.9-.93-2.45-.02-.3.06-.62.22-.93l-.37-.67-.7-.34c-.08-.46-.29-1.1-.62-1.94-.16,0-.31.09-.46.24-.09-.23-.08-.46-.02-.69.23-.23.6-.64,1.13-1.18-.16-.3-.65-.99-1.44-2.04-.09-.07.02-.46.32-1.17.23,0,.6-.13,1.13-.37.29-.71.77-1.72,1.42-3.05l-.25-.79c.06-.55.51-1.2,1.32-2,.82-.79,1.32-1.31,1.46-1.54l2.08-.05.54-1.05.94.44c.14-.24.33-.55.55-.94l-.12-.12c.22-.31.63-.7,1.24-1.19.3,0,.57.03.81.11-.08.23.21.51.83.85.62.33.97.53,1.05.6l.23.11c.38-.4.82-.79,1.36-1.18.23,0,.46.02.69.09l.59.67.8-.59c.09.85.34,1.41.73,1.71l.57-.13.46.12c.24.22.6.55,1.07,1l.46.22c.31.07,1.36.47,3.15,1.18.07.31.25.81.5,1.49l1.49-.38c-.08.23-.11.42-.11.57.02.77,1.48,2.53,4.4,5.31l-.1.58,1.33,2.38.35.11c.22-.16.46-.19.69-.13l.22.11c.01.46.1,1.04.28,1.72,1.41,1.13,2.37,2.56,2.88,4.32l.47.22.36.34c.58,1.98.88,3.02.89,3.09l.94,1c-.08.17-.23.38-.45.59.47.31.78.72.96,1.25.17.54.4.96.73,1.26l.12.58c-.37.77-.55,1.28-.54,1.51.02.53.25,1.07.73,1.6l-1.23,1.76.35.22c.23,0,.49-.02.8-.03l.36.46c-.15.24-.33.59-.55,1.06l.12.34c.09.24.25.43.48.56-.76.56-1.16,1.57-1.19,3.03-.83.78-1.73,1.59-2.7,2.38v.23s.24.12.24.12l.23.12c-.83.86-1.95,2.2-3.36,4l-.2.82c.07.45.17.8.24,1.02-.83.41-1.23,1.07-1.21,1.99,0,.32.09.67.25,1.05-.05,1.08-.07,1.5-.07,1.26,0,.47.21.88.6,1.26-.16,2.7-.24,3.93-.25,3.69.01.54.2,1.89.57,4.02-.45.33-.98,1.11-1.55,2.36l.11.11c.53,0,.88.02,1.05.09.37-.16.71-.25,1.02-.25,1.07-.03,2.64-.29,4.7-.8,2.06-.52,3.6-.79,4.6-.82,1.84-.04,3.06-.15,3.67-.33.08-.31.22-.62.45-.93.53-.09,1.33-.49,2.39-1.22l1.03-.25c.15-.39.28-.97.41-1.74-.28-2.07-.87-4.01-1.76-5.83l-.02-.46c.07-.46-.1-1.11-.51-1.95-.4-.83-.66-1.45-.74-1.82.46-.47,1.37-.8,2.74-1,1.7-.12,2.73-.25,3.11-.43.85.29,2.17.8,3.95,1.52.55.36,1.45.89,2.7,1.55,5.44,2.54,8.19,4.63,8.22,6.24-1.12.65-1.69,1.2-1.68,1.66.02.23.12.55.37.97.23.43.37.7.36.85l-.21.71c1.17.59,2.22,1.32,3.17,2.22l.64,2.3Z"/>
      <path class="st0" d="M59,234.59l.31,4.59c-.18.5-.35.84-.54,1.02l-.08.65.22,1.38c-1.44.33-2.65.62-3.65.81l-.86-.25-4.13.38c-.96-.71-1.48-1.3-1.55-1.75-.07-.45-.2-1.22-.39-2.29-.18-1.08-.28-1.88-.29-2.44v-.56c.11-.36.19-.61.26-.74-.09-3.06-.07-4.87.04-5.42.31-2.4,1.35-3.63,3.11-3.67,3.83-.1,6.4.05,7.73.45l-.18,7.83ZM88.2,240.61c-1.55-.85-2.96-1.26-4.21-1.23.38-.01,0,.02-1.14.12l-.18-.28-.47-.08-.85.03-.18.1c-.13,0-.25,0-.37,0l-1.22.21-.38-.26c-1.19.33-1.76.5-1.69.5l-.85-.08c-.74.51-1.21.99-1.38,1.42l-.29-.18c-.37.07-.62.13-.75.2l-.45.75c-4.33-.14-7.57-.24-9.71-.31l.44-1.58-.11-.55c.46-1.73.69-2.44.71-2.13-.11-3.99.04-6.66.45-8.02l.18-.29c.55-.25.85-.41.92-.48-.45-.78-.76-1.42-.89-1.9l-.29-.28.36-.56c1.69-.04,3.07-.5,4.1-1.39,1.04-.88,1.92-1.33,2.61-1.35-.26-.43-.71-.87-1.35-1.35.11-.43.51-.72,1.2-.86-1.1-1.56-3.98-2.28-8.63-2.16.05-.8.17-1.32.34-1.58.62-.32,1-.58,1.11-.76-.06-.18.32-1.05,1.16-2.6.12-.13.21-.49.25-1.11.04-.62.23-1.05.54-1.31-.41-1.02-.65-1.82-.72-2.37-1.57-2.36-2.69-4.14-3.34-5.35-.96-.35-1.52-.7-1.72-1.06l-.57-.17-.57-.54.18-.28c.31-.07.72,0,1.23.25.89-1.74,1.58-3.11,2.06-4.1.92-.7,1.7-1.12,2.32-1.25.55-.68.91-1.07,1.1-1.13l.76.34c.84.97,1.45,1.44,1.82,1.42.07.25.16,1.29.27,3.13.09,1.24.31,2.23.64,3.03-.2,1.97-.31,3.04-.29,3.22.52.77.98,1.35,1.36,1.72l.93-.22c.73-.7,1.39-1.91,1.97-3.64.59-1.73.86-3.15.84-4.25-.02-.42-.09-1.1-.25-2.02-.15-.91-.23-1.59-.23-2.02-.04-1.59.15-2.88.56-3.88l-.67-.72-.11-.36.09-.2h.1c2.03,1.18,3.57,2.09,4.58,2.75,2.4.67,4.24,1.08,5.49,1.23.48-.99.9-1.65,1.26-1.97-.41-1.39-1.28-2.54-2.62-3.43-1.71-1.12-2.74-1.89-3.07-2.31-.31,0-1.35-.4-3.13-1.21-1.14-.34-2-.53-2.57-.58-.02-.98.48-1.67,1.51-2.06,1.01-.39,2.07-.79,3.12-1.19,1.3-.76,2.15-2.05,2.54-3.84-.33-.3-.84-.66-1.53-1.06l-.02-.55c-.69.14-2.72-.4-6.07-1.6l-.93.21c-.06-.19-.14-.34-.21-.46h-.28s-.18.11-.18.11h-.28s-.46.48-.46.48c-2.26-.18-4.8,1.04-7.62,3.69-2.33,2.21-4.09,4.56-5.29,7.04-1.3,2.79-1.89,6.76-1.76,11.91.05,1.66.44,2.85,1.22,3.56l-.47.3-.76-.54-.57.2-.66-.07c-.12.24-.24.43-.37.56l-.37.2c-.44,0-.79.02-1.03.02-.06.13-.13.28-.18.46-.39-.36-.58-.78-.6-1.27v-.37s.26-.37.26-.37c-2.39-2.89-4.14-5.08-5.25-6.59l-1.04.03-.29-.17-.19-.27c-.06.13-.15.25-.27.37l-.78-.72-.84.11-.58-.36c1.43-.83,2.45-1.21,3.07-1.17,2.54-1.48,4.2-2.94,4.98-4.37-.34-.79-.48-1.39-.42-1.82-.59-1.03-1.11-1.91-1.57-2.63-.96-.89-1.71-1.48-2.22-1.77-.57-.55-.99-.96-1.24-1.26-1.54-1.06-4.52-2.01-8.93-2.81l-.94.21c-.9-.65-2.05-1.12-3.43-1.39l-1.86,1.06c-4.95.37-9.81,4.27-14.58,11.7-1.63,2.55-2.62,4.36-2.98,5.41-.75,2.28-1.11,4.44-1.06,6.46.12,4.36,3.77,7.16,10.96,8.38.42-.93.77-1.57,1.08-1.96l-.02-.37c.31-.43.71-.81,1.2-1.13,3.89-2.69,6.1-4.27,6.66-4.78.31-.37.64-.77,1.01-1.21.37-.45.8-.67,1.31-.67.18-.02.37.02.56.07l.4.73c-.28,1.35.34,3.61,1.86,6.76h-.28s-.09,0-.09,0l-.09.18c.46.9.92,1.69,1.38,2.36.69.29,1.39.39,2.08.32l.66-.03c.68-1.04,1.15-1.83,1.45-2.33-.81-1.82-1.22-3.24-1.24-4.28,0-.38.02-.9.1-1.57.08-.68.11-1.13.1-1.38h.29c.14.41.23.75.31,1l.29.27c.19,0,.32.02.38.07l.19.09c.14.61.57,1.09,1.27,1.44l.1.36c1.24-.21,2.19-.11,2.83.29l.68.64.27-.28c.63.03,1.1.12,1.42.24l.67.26c.8-.58,1.54-.98,2.23-1.26.54,1.46.87,2.22.99,2.27-.29.81-.4,2.65-.33,5.53.06,2.15.35,3.61.86,4.4l-.17.46.59,1-.36.65-1.59.59-.09.1c0,.25.07.43.2.55-.12.12-.27.22-.46.28-2.33-.31-4.09-.38-5.28-.23-.37.07-1.88.17-4.51.3-1.88.05-3.35.27-4.41.67-3.01-.17-4.49-.25-4.43-.26-.81.02-1.62.22-2.43.61l-.67-.07c-.19.06-.34.2-.46.38l.1.35c.59.91.98,1.98,1.17,3.2.18,1.23.54,2.15,1.06,2.82,0,.06.39.48,1.16,1.27.45.48.71.96.79,1.44.06-.18.15-.37.27-.56l.19-.19h.38l.86.8c.61-1.12,1.65-1.82,3.15-2.11.5-.13,1.82-.23,3.95-.28.45-.02.82.07,1.15.24-2.15,2.39-3.14,6.62-2.98,12.68.04,1.49.32,2.88.86,4.21-.31.13-.66.18-1.03.12l-.29.11c-.07.12-.11.28-.18.47-.51-.06-.88-.11-1.13-.16-.75.32-1.28.55-1.58.68l-.67-.34c-1.69.15-3,.56-3.93,1.19l-1.04-.34c-1.06.34-2.84.73-5.34,1.16-2.19.36-4,.84-5.44,1.41l-.38-.53-1.04.11c-.18.07-.37.11-.56.11-.31-.12-.57-.22-.76-.35-.19-.11-.66-.17-1.41-.15-.19,0-.62.2-1.31.58l-.19-.08c-1.3.89-2.03,1.46-2.21,1.71v.19c-.25.19-.42.38-.55.57,0,.18.07.33.19.44.03.99.34,2.18.94,3.58l1.81,1.05c.79,1.39,1.5,2.3,2.15,2.7.25-.13.43-.22.55-.29.14.42.43.73.87.91.25.05.7.13,1.34.23,1.14.54,2,.87,2.57,1.05.86-.71,2.15-1.34,3.9-1.94v-.64c3.13-2.6,6.21-4.27,9.28-5.02,1.68-.48,2.95-.85,3.83-1.11,4.88-.74,7.92-1.12,9.1-1.15l.29-.1.09.09h.19s.18-.19.18-.19l.95-.02c.49-.39,1.09-.59,1.78-.6,1.39-.04,2-.05,1.88-.05.94-.27,1.44-.41,1.49-.41l1.99.23c1.24-.53,3.22-.83,5.92-.9.88-.02,2.19.03,3.95.14,1.77.11,3.08.15,3.97.12l2.72-.34c.26.18.73.24,1.41.18.69-.04,1.2.08,1.53.39l.73-.67.37-.1c.26.12.48.24.67.35,1.87-.41,3.28-.7,4.22-.84l.48.25c2.16-1.65,4.13-3.1,5.93-4.38-.47-1.03-1.49-1.96-3.05-2.82Z"/>
      <path class="st0" d="M73.29,274.75c-.07.57-.29,1.15-.72,1.65-.43.57-.29,1.08.36,1.51.36.65.22,1.15-.29,1.36-.57.29-.93.72-1.15,1.22-1.01,1.01-2.3,1.8-3.66,2.3-1.15.79-2.3,1.51-3.3,2.3-.43.43-.79.86-1.15,1.22,1.72-.5,3.45-1.22,5.1-2.16.65-.14,1.29-.57,1.94-1.08.43-.36,1.01-.57,1.65-.57h1.44v-.29c.5.5,1.22.72,2.08.79.79.07,1.08.65,1.01,1.51-1.01,1.08-2.15,2.01-3.3,2.87-1.01.29-1.87.79-2.58,1.44,1.94-.29,3.8-.86,5.6-1.72.29.22.5.14.57-.22.36.29.86.36,1.36.22.36.07.79.22,1.15.57,1.29.29,2.58.86,3.59,1.8.22.29.5.57.86.72.36.22.36.57.07,1.01-.07.36-.22.65-.57.86-1.94.5-3.88.72-5.89.57-2.8,1.08-5.53,2.3-8.18,3.59-3.09,1.58-6.1,3.16-8.97,4.96-.22-.07-.36-.07-.57,0l.36.36h-.36c-.29.29-.5.5-.57.79,1.29,1.51,2.66,2.87,4.24,4.09,2.3-1.87,4.52-3.81,6.82-5.82-.57-.57-1.29-.86-2.08-.86,1.36-.86,2.73-1.65,4.31-2.3,0-.29.14-.43.43-.43s.5-.14.65-.43h.29c.22-.07.5-.22.79-.36.36.07.72.22,1.15.36.29-.57.65-.72,1.01-.43.36.43.79.65,1.29.72.22.43.65.65,1.15.57,1.15.5,2.23,1.29,3.09,2.3-.07.72-.22,1.29-.57,1.8-2.3.5-4.59,1.08-6.75,1.72.5.14.93.43,1.15.86.07.72-.07,1.15-.57,1.36-.5.22-.72.5-.57.93,1.29,1.94,2.51,3.88,3.88,5.75,2.08,2.16,3.8,4.6,5.31,7.25,1.36,1.72,2.66,3.45,4.02,5.17.22,1.08.5,2.01,1.08,2.94.22.79,0,1.44-.57,2.01-.57.5-1.01,1.08-1.36,1.65-1.01.65-1.79,1.36-2.58,2.3-2.73,1.44-5.6,1.72-8.61.86-1.51-.22-2.87-.57-4.24-1.15-.86-.86-1.79-1.51-2.87-2.01-1.15-.5-1.94-1.36-2.44-2.51-1.15-.86-1.94-2.08-2.23-3.52.22-.65.29-1.29.22-2.01.72-2.01,1.01-4.17.86-6.32-.36-.36-.79-.79-1.08-1.15-1.79,2.01-3.37,4.09-4.95,6.18-1.58,2.08-3.45,3.95-5.53,5.39-1.58,1.58-3.16,3.02-4.74,4.53-.65,1.01-1.51,1.8-2.51,2.3-.22.57-.57.86-1.15.86.93-1.29,1.72-2.66,2.58-4.02,4.59-5.39,8.76-11.13,12.63-17.24-1.65.57-3.16,1.08-4.81,1.44-.86.36-1.51.93-1.72,1.72-.07.07-.22.14-.29.22-.5-.5-.86-1.15-1.08-1.94.14-.22.43-.43.79-.5.36-.07.5-.36.29-.65h.29v-1.22c.36-.29.57-.65.57-1.15,1.29-.5,2.44-1.22,3.37-2.3-.72-.86-1.44-1.72-2.15-2.66-.72-.93-1.01-1.87-.93-3.09.5-.14.79-.43,1.08-.86.07-.43.14-.79.36-1.15.36-.5.86-.86,1.36-1.22,1.01-.5,2.01-1.08,3.09-1.65,2.3-1.44,4.52-2.87,6.75-4.38-1.08.5-2.23.86-3.3,1.15-2.01.93-3.88,2.01-5.67,3.09-1.87,1.08-3.8,1.94-5.89,2.44-.5.36-1.08.65-1.65.86-.5-.43-.79-1.01-.86-1.65-.07-.65-.29-1.22-.57-1.8.14-.22.43-.22.79,0,.14-.22.14-.36,0-.57.22-.22.36-.57.29-.93-1.08.5-2.08.5-3.09,0-2.51.72-5.03,1.36-7.54,2.01-3.66,1.08-7.04,2.8-10.12,4.96-3.45,1.15-6.32,3.16-8.69,5.75-.5-.07-1.01.07-1.44.43-.36.36-.79.36-1.15-.14,0-.72.14-1.44.36-2.01-.07-.43.14-.79.57-1.15.43-.22.57-.65.5-1.22,1.51-.36,2.87-1.01,4.24-1.94,3.02-2.01,6.25-3.88,9.55-5.53,2.01-2.3,4.09-4.74,6.17-7.18h-.57c-3.16,2.3-6.53,4.17-10.12,5.39-.65-.07-.79-.43-.57-1.08.14-.72.36-1.51.57-2.23,1.65-2.08,3.23-4.17,4.81-6.39-1.79.72-3.59,1.22-5.38,1.44-.93,0-1.72-.36-2.23-1.08.22-.5.29-1.01.29-1.51l.29.29c.22-.22.29-.5.07-.86-.22-.36-.14-.57.22-.65v-.22c.29-.07.57-.22.79-.57.22-.36.43-.36.86,0,.07-.07.14-.22.29-.29.5.22,1.01.07,1.36-.36.36-.43.72-.79,1.15-1.15,1.65-1.36,3.02-3.02,4.24-4.88-.07-.65-.36-1.08-.86-1.44-.86-.72-1.29-1.72-1.36-2.95.43,0,.65-.22.57-.65-.07-.43.07-.65.5-.72.36-.43.79-.72,1.44-.93,4.52-.36,7.9,1.58,10.12,5.53.14,1.22.07,2.51-.29,3.73-.93,1.15-1.94,2.01-3.09,2.8-1.22.79-2.23,1.65-3.09,2.66-1.94,1.87-3.66,3.66-5.38,5.53h.29c2.73-2.01,5.74-3.59,8.97-4.88.29-.5.65-.72,1.15-.65v-.22c.72.22,1.29.07,1.72-.36.43.22.93.36,1.51.43.5.07.86.43,1.01,1.08.22,1.36-.22,2.37-1.36,3.16-1.58,1.36-3.37,2.66-5.1,3.81-1.22,1.15-2.37,2.15-3.66,3.09.86-.14,1.58-.5,2.23-1.15l-.29-.29c1.72-1.08,3.37-2.23,5.1-3.45.29.43.65.57,1.15.36,1.01.36,2.01.79,3.02,1.15.36-.14.79-.07,1.22.29,1.15.43,1.87,1.22,2.15,2.51.72-.36,1.51-.79,2.23-1.22.79-.07,1.58-.29,2.3-.79,3.23-1.65,6.25-3.74,8.97-6.25-1.22.14-2.37.43-3.37.79-.93.43-1.87.79-2.73,1.15-1.15,0-2.23.29-3.16.86-.22.14-.36.29-.5.36-.07-.5.07-.86.5-1.22.5-.86.93-1.72,1.44-2.51,1.44-1.08,2.66-2.3,3.88-3.81-2.44.14-4.74.72-6.96,1.65-.22-.57-.22-1.29,0-1.94.65.14.86-.07.72-.65-.14-.5,0-.86.43-1.08.14-.29.29-.57.5-.86.29-.07.5-.29.57-.65,1.44-.29,2.58-1.08,3.3-2.59.36-1.22.5-2.37.36-3.74-.36-.43-.72-.86-.86-1.44.14-.57.5-1.08,1.08-1.44.07.22.29.29.57.22.93-.72,1.87-.93,3.09-.86,1.22.36,2.44.65,3.66.86,1.65,1.22,2.8,2.73,3.45,4.74ZM48.81,301.18c1.08.5,2.08,1.29,2.87,2.37.14.79-.07,1.36-.65,1.65-.57.36-1.15.65-1.65.86-2.8,2.87-5.67,5.82-8.47,8.69l-.5.93c.43,1.22.86,2.44,1.08,3.74.07,1.58.07,3.16,0,4.67h.29c4.38-4.09,8.33-8.48,12.06-13.29-.29.72-.65,1.36-1.08,1.94-.36.5-.72,1.01-1.08,1.44,0,1.15-.43,2.15-1.22,2.87-.36,1.29-.79,2.59-1.08,3.81-.5,1.51-1.08,2.94-1.72,4.31-.22,1.01-.65,2.01-1.08,2.94-1.36,1.72-3.02,3.09-5.1,3.95-2.15.07-3.8-.79-5.03-2.87-.14-.43-.43-.79-.86-1.08.14-1.8.43-3.45.86-5.17.72-1.51,1.22-3.02,1.65-4.67-.93.65-1.87,1.29-2.8,1.94-.57.86-1.08,1.65-1.65,2.37-.72.86-1.29,1.87-1.72,2.94-.79,1.8-1.94,3.38-3.3,4.53-.65.79-1.36,1.29-2.3,1.51-.72.07-1.36.36-1.94.79-.72.36-1.29.86-1.65,1.51v-.36c2.73-5.32,5.89-10.41,9.48-15.23v-.65c-2.8-1.15-4.45-3.45-5.03-6.61-.29-.93-.29-1.94,0-2.87-.14-.29-.14-.72,0-1.15.65-.07.79-.43.57-.93.86-.29,1.65-.07,2.51.65,1.65,1.87,3.45,3.73,5.31,5.46,1.29-1.51,2.44-3.16,3.66-4.88l.57-1.44c-1.36.65-2.58,1.08-3.95,1.44-.65.22-1.08.14-1.36-.29h-.57c2.3-2.3,5.1-4.02,8.4-4.96.07-.22.22-.5.36-.86.07-.22.22-.29.57-.22v.22l.22-.57c.14.22.29.22.5,0v-.29c.72.22,1.29.14,1.72-.29.36.5.86.72,1.36.57.57.22,1.15.43,1.72.57ZM72.07,307.86c-1.29.72-2.44,1.65-3.59,2.59-.65.5-1.08,1.01-1.36,1.72.36.07.57-.14.72-.57.79.36,1.65.57,2.58.57,1.58.43,2.66,1.51,3.09,3.16-.22,1.08-.57,2.01-1.08,2.95-.22.79-.43,1.58-.57,2.3-.72.79-.72,1.51-.07,2.01.65.43,1.08,1.08,1.15,1.72,1.58.86,3.45,1.29,5.31,1.22.36-.22.79-.22,1.15,0v-.57c.57-.5,1.22-.72,2.01-.65-1.22-2.01-2.3-4.02-3.37-6.03v-.29h.22c1.08,1.94,2.23,3.73,3.45,5.46v-.29c-2.15-3.66-4.45-7.4-6.75-10.99-.86-1.44-1.79-2.94-2.87-4.31ZM68.48,293.71l-.65.22c.22-.07.43-.14.65-.22ZM72.93,307.28l-.5.36.5.79c1.87,3.45,4.16,6.75,6.75,9.84-1.44-2.44-2.94-4.88-4.52-7.25-.65-1.29-1.36-2.59-2.23-3.74ZM73.79,306.71c2.08,3.73,4.38,7.18,7.04,10.34h.29c-2.15-3.09-4.38-6.25-6.53-9.41-.07-.65-.29-.93-.79-.93ZM74.58,306.06c.36.65.72,1.29,1.15,1.8-.29-.65-.65-1.22-1.15-1.8Z"/>
      <path class="st0" d="M26.12,362.97c1.65.65,2.87,1.72,3.88,3.16-.07.43,0,.86.07,1.22-.93,1.01-1.94,1.51-3.16,1.44-.79.22-1.15.72-1.15,1.51,0,.72-.14,1.36-.65,1.8-.79,1.72-.93,3.52-.36,5.39.5,1.94.57,3.74.07,5.46-.5,2.59-.07,4.96,1.22,7.18-.14,1.65.36,3.16,1.58,4.45,1.58-1.8,3.3-3.59,4.88-5.46,1.36-1.58,2.8-3.23,4.31-4.74.07.5-.07,1.01-.43,1.36-.5,1.01-.86,2.01-1.22,3.02-.86.93-1.65,2.01-2.3,3.02.07.07.14.07.22.14.79-.93,1.58-2.01,2.3-3.09.5-1.08,1.15-2.08,1.94-2.94.43.14.65.5.72,1.01-.57,1.22-1.22,2.3-1.72,3.52-.36.93-.79,1.72-1.36,2.51-.43,1.65-1.36,2.8-2.8,3.59-.5,1.29-1.01,2.59-1.44,3.81-.65.43-.93,1.08-.86,1.72-.22.36-.29.79-.36,1.15-.36.57-.79.93-1.29.93-1.44-.5-2.8-.79-4.16-1.01-.93-.5-1.65-1.15-2.23-2.08-1.01-.93-1.58-2.08-1.65-3.45-.07-1.29-.14-2.66-.14-4.02.36-3.16.65-6.32.93-9.62.29-2.01.43-4.17.36-6.32-.07-2.16.22-4.24.79-6.32.07-1.94.22-3.88.43-5.82.29-1.01.65-2.01,1.08-3.09l.36.29c.72-.36,1.44-.29,2.15.29ZM23.39,361.82c-.07-.07-.14-.14-.14-.22.07.07.14.07.22.07,0,.07,0,.14-.07.14ZM33.3,347.81c.65,1.08.57,2.08-.14,3.02-.36.93-1.08,1.58-1.94,1.87-1.72,0-2.87.79-3.52,2.23-1.36,1.08-2.15,2.44-2.58,3.95-.07.5-.36.79-.72.86-.36-.14-.5-.43-.36-.93.93-3.23,1.65-6.54,2.44-9.91-.36-.5-.29-1.08.07-1.58,0-.5.14-.86.36-1.36.36-.65.86-.93,1.51-1.01v-.29c.29.29.5.29.79,0,1.65.72,3.02,1.8,4.09,3.16ZM32.08,393.13l.22-.43-.36.5.14-.07ZM34.02,384.8h.07v.14h-.07v-.14ZM63.38,342.42c2.3,1.22,3.59,3.09,3.88,5.6,0,.07.07.07.14.14,1.29-.43,2.58-.57,3.88-.36,2.15.43,4.16,1.08,6.17,1.87,1.94.65,3.66,1.58,5.24,2.95.72.57,1.51,1.08,2.37,1.58.57.5,1.08,1.15,1.29,1.87.36.57.43,1.15.22,1.8-.36.65-.79,1.08-1.29,1.29-.93.22-1.87.07-2.73-.43-.79-.36-1.65-.5-2.58-.29-.79.29-1.51.79-2.15,1.44-.5-.29-.93-.22-1.22.22-.29.43-.65.5-1.08.29.93-.93,1.79-1.8,2.73-2.73-.79.22-1.51.5-2.15.79-1.15.57-2.3,1.08-3.37,1.51-.14.72-.43,1.29-.79,1.65-.07.43-.29.79-.79.86-.5.14-.72.36-.93.72-2.51.57-4.95.86-7.39.93-.22.07-.43.22-.57.29.14.65.5,1.22,1.15,1.72.29.65.57,1.22.86,1.65.86-.14,1.87-.43,2.8-.93.72-.29,1.58-.65,2.51-1.08,2.23-.65,4.52-.79,6.96-.29.14.22.43.36.72.29,2.73,1.51,4.95,3.52,6.53,6.25.22.79.07,1.44-.43,1.87-.07,0-.07-.07-.07-.14-.43.86-.79,1.72-1.15,2.51-.36,1.44-.86,2.94-1.36,4.38-.5,1.51-1.36,2.66-2.73,3.52-.93.65-1.79,1.22-2.87,1.58v.22c1.08.43,1.79,1.15,2.3,2.08-.57.79-1.22,1.15-2.15,1.08-.93-.07-1.72-.14-2.58-.29-1.79.07-3.59.29-5.31.72-.57.22-1.08.43-1.58.65-3.16.07-5.89,1.22-8.11,3.38-1.65,2.01-3.45,3.59-5.6,4.74-1.51,1.44-2.87,2.8-4.24,4.31-1.44,1.44-3.23,2.44-5.1,3.02-.36-.36-.65-.79-.79-1.29-1.01-.72-1.58-1.8-1.79-3.09.36,0,.5-.14.5-.5v-.07c0-.36.14-.79.5-1.15-.22-.07-.29-.22-.36-.43.43.07.79,0,1.01-.22.36-.22.72-.29,1.15-.14,1.44.22,2.66-.14,3.66-1.15,1.01-1.01,2.08-1.94,3.09-2.87.29-.29.57-.65.79-1.01-1.01.22-2.08.5-3.09.86-1.44,1.01-3.09,1.65-4.81,1.72-.65,0-1.22.22-1.58.65-.79.14-1.44-.07-1.94-.65-.36-.5-.57-1.01-.72-1.58.14-.14.22-.43.22-.72,0-.5,0-1.01-.07-1.51.36.07.57,0,.65-.22.86.29,1.65.22,2.44-.14,2.94-.93,5.89-2.15,8.76-3.52-2.3-1.65-4.45-3.45-6.53-5.46-1.08-1.44-2.01-3.02-2.8-4.74-.72.43-1.29,1.08-1.51,1.87-.5,1.08-1.29,1.8-2.23,2.01.93-1.72,2.01-3.38,3.23-5.17,0-.36-.07-.57-.22-.93.36-.22.57-.65.65-1.29-.07-.29-.22-.65-.29-1.01h.72c-.07-.07-.07-.22.07-.29.36.07.79.14,1.15.29.07-.07.07-.22.14-.29.57.5,1.15.65,1.79.36.07.22.29.22.5.14,2.8-3.3,5.6-6.46,8.4-9.7-1.15-.22-2.15-.72-3.02-1.58-.22-.22-.29-.43-.36-.79.22-.07.29-.29.22-.5-.07-.07-.14-.07-.22-.14.14-.07.29-.14.43-.22-.22-.43-.07-.65.43-.72,2.23-.86,4.52-1.8,6.75-2.87.07-.07.14-.14.22-.29v-.07c.29-.36.65-.57.93-.72.22-.22.36-.5.36-.79.22,0,.36,0,.57-.14-.22-.36-.14-.65.07-.93.22.29.43.43.79.43.07-.29.36-.57.72-.86.29.07.72.14,1.22.22.07.29.29.43.65.43.22.14.5.29.79.43,2.15,1.01,4.38,1.87,6.68,2.59,1.36-1.22,2.66-2.37,3.95-3.74-1.15-.93-2.37-1.65-3.73-2.37-2.08-.29-3.95.22-5.67,1.51-1.01.36-2.08.43-3.16.22-.5.14-.86.07-1.29-.14-.5.65-1.08.79-1.72.43-.5-.22-1.08-.29-1.72-.22-1.22.5-2.3,1.08-3.37,1.72-2.37.93-4.52,2.23-6.53,3.81-.57.79-1,1.58-1.44,2.3-1.08,1.51-1.51,3.23-1.36,5.1.22.65.07,1.15-.29,1.44-.43.43-.72.86-.72,1.36-.5.43-1.01.5-1.58.29-.5,0-.93-.07-1.36-.29-.93-1.29-1.79-2.59-2.73-4.02,0-.36,0-.57.07-.93.36-.43.5-.86.29-1.29,2.01-1.8,3.52-4.02,4.67-6.61.07-.72.07-1.44,0-2.23.07.14.22.14.36,0-.07-.07-.14-.22-.22-.29.07,0,.22,0,.43.07-.07-.43-.22-.79-.43-1.15.36.22.57.22.79-.07-.07-.07-.14-.07-.22-.14.36,0,.57-.22.79-.57.79-.07,1.36.29,1.72,1.01-.14.43-.07.86.14,1.29,2.08-.5,4.02-1.44,5.96-2.66.72-.5,1.44-1.22,2.01-2.08.07-2.37-.72-4.45-2.3-6.18-.14,0-.22,0-.29-.07.22-.07.29-.22.29-.43-.14-.07-.29-.22-.36-.43.22,0,.43,0,.65-.07.29-.43.5-.93.72-1.44.29-.07.43-.22.36-.43,1.29-1.15,2.66-1.51,4.31-1.08.65.36,1.29.72,1.94,1.01,1.22.72,2.44,1.44,3.73,1.94ZM54.48,367.56c-1.01.36-1.87,1.01-2.73,1.8-2.15,1.44-4.24,3.16-5.96,5.03-.36,1.01-.22,1.87.36,2.59.5.79,1.01,1.51,1.65,2.15.36,1.44,1.15,2.8,2.15,3.81.22,1.44.93,2.44,2.15,3.02.57.07,1.22.07,1.87,0,0,.5-.14.86-.5,1.15,1.44-.65,2.8-1.29,4.24-2.01-.07-.22-.14-.43-.36-.65-.22.07-.36.14-.43.29-.57-1.22-.79-2.44-.65-3.88-.43-.36-.86-.57-1.44-.72-1.08-.22-1.87-.79-2.23-2.01,0-.36.14-.57.43-.65.07-.14-.07-.29-.29-.36.22-.07.43-.14.65-.22-.07-.07-.14-.22-.22-.29,0-.29.14-.36.5-.29.29.07.43,0,.43-.36.5.07,1.01,0,1.51-.22-.07-3.02-.14-6.03-.22-9.05-.36.22-.72.5-.93.86ZM46.22,356.22c.57-.29,1.22-.57,1.87-.93-.5.07-.93.14-1.44.22,0-.07-.07-.22-.07-.36-.36.36-.43.65-.36,1.08ZM48.45,355.28v-.14h-.22v.14h.22ZM70.56,369.5c-1.72.65-3.52,1.15-5.38,1.51.14,1.01.07,2.01-.22,2.87,1.44.57,2.51,1.51,3.23,2.8.07,1.08-.5,1.87-1.51,2.3-.57.14-1.08.36-1.58.57-.57.14-.86.57-.86,1.22-.07.65-.36,1.08-.86,1.29.36.65,1.01,1.08,1.79,1.22,2.01-1.36,3.8-3.02,5.38-4.88,1.94-2.51,3.02-5.39,3.23-8.69-1.01-.65-2.15-.72-3.23-.22ZM83.91,398.88c.65.79,1.22,1.72,1.79,2.59.57.93.65,1.94.29,2.94-.93,1.15-2.15,1.65-3.59,1.58-.65,0-1.22-.14-1.72-.43-.86-.22-1.51-.57-2.08-1.15h-1.87c-1.08.22-2.23.29-3.23.36-.36.22-.79.22-1.22.14-1.01-.07-1.87.07-2.73.29-.22-.22-.07-.43.36-.57.65-.29,1.22-.57,2.01-.86-1.36-.36-2.51-.22-3.66.43-1.22.29-2.51.29-3.73,0-.07-.22.07-.43.22-.57,1.36-.79,2.73-1.51,4.16-2.15.93-.57,1.65-1.22,2.37-2.15-.07-.65-.22-1.36-.29-1.94-1.15-.72-2.3-1.58-3.23-2.66.07-.07.07-.14.07-.22-.22-.14-.22-.36,0-.57.36-.14.72-.36,1.08-.65-.14-.36,0-.57.36-.79,1.58-.14,3.23.22,4.74,1.01,3.59,1.15,6.89,2.94,9.91,5.39Z"/>
      <path class="st0" d="M83.7,451.61c.07.79-.14,1.08-.72,1.01-.57-.79-1.36-1.29-2.3-1.65-5.17-3.02-9.48-7.04-12.78-11.85-2.58-3.66-5.03-7.47-7.25-11.42-1.51-2.8-3.09-5.53-4.88-8.19-.14-.14-.22-.22-.43-.22-1.01.65-2.01,1.29-3.01,1.8-.43.5-1.01.65-1.72.57-.79-.07-1.15.22-1.36.86-.93,1.36-1.87,2.66-2.87,3.88-1.51,1.29-2.87,2.66-4.31,4.02-2.23,2.59-4.24,5.32-5.96,8.19-1.44,2.95-2.58,5.96-3.52,8.98-.29,1.29-.79,2.59-1.51,3.81-2.87,3.23-5.24,6.75-7.04,10.49-.65.65-1.29,1.08-2.01,1.44-.86.14-1.44-.14-1.79-.79-.36-.65-.72-1.22-1.22-1.72-.36-.79-.36-1.65-.14-2.51-.07-.57.22-1.08.72-1.58.5-.29,1.08-.65,1.65-1.01,3.3-2.8,6.03-6.11,8.18-9.84,2.23-3.66,4.02-7.47,5.6-11.49,4.02-7.11,8.83-13.79,14.5-19.97.57-.5,1.29-1.08,1.94-1.8.65-.79,1.36-1.01,2.44-.72.29.22.57.43.86.65.5.43.86,1.08,1.01,1.8,2.23.22,4.24,1.01,5.96,2.44,2.51,2.08,4.52,4.45,6.25,7.04,1.72,2.59,3.59,5.1,5.67,7.4,2.15,3.23,4.52,6.25,7.25,9.12.93,1.29,1.87,2.44,3.01,3.59.07.22.14.43.29.65.36.79.93,1.44,1.51,2.01.07.57.22,1.08.5,1.44-.14.22-.36.29-.57.36.22.72.14,1.44-.14,2.15-.22.14-.36.29-.5.36-.22,0-.43.07-.65.22-.07.22-.14.43-.22.57l-.07-.07c-.07-.14-.22-.14-.36,0ZM84.2,473.59c.36.07.57.36.79.79.14.36.43.43.72.14-.07.57.07,1.01.5,1.44.36,1.08.14,1.87-.5,2.51-.57-.07-1.08.07-1.58.43v.43c-.43-.57-1.01-1.01-1.58-1.36-.57-.36-1.08-.79-1.44-1.29-2.58-1.36-4.88-3.09-7.11-4.96-1.01-1.22-2.08-2.37-3.16-3.59-.29,0-.43.07-.5.29-.5,1.08-1.15,2.08-2.01,2.94-1.01,1.08-2.23,1.72-3.66,2.23-.65.5-1.36.86-2.08,1.15-.93.5-1.79.93-2.73,1.44-.65.22-1.22.43-1.79.79-.36.14-.65.29-.93.36-1.51.07-2.94.36-4.38.86-1.44.43-2.87.43-4.31.14-1.79-.29-3.3-1.01-4.59-2.15-.29-.36-.72-.65-1.22-.72-.5-.14-.79-.5-.72-1.08-1.08-1.65-1.72-3.38-2.08-5.24-1.22,0-2.23.36-3.16,1.08-1.29.93-2.51,1.87-3.73,2.66.07.43.07.79-.14,1.08-.79.36-1.51.36-2.3,0-.65.14-1.15-.07-1.36-.57-.22-.5-.57-.86-1.08-.93-1.65-2.08-2.8-4.24-3.66-6.61.07-.57,0-1.15-.36-1.65.57-.14.86-.43.86-.86,2.3-2.8,4.95-5.32,7.9-7.61,1.29-1.15,2.66-2.08,4.16-3.02.07-.22.29-.29.57-.36.5.14.86.43,1.01.86-1.44,1.72-2.94,3.59-4.38,5.32-.29.29-.5.57-.72.79.65-.07,1.29-.22,1.94-.57,6.03-3.66,12.13-7.25,18.31-10.92.14-.36.43-.57.93-.65.5-.07.72-.43.65-1.01.14-.29.36-.36.65-.14s.5.14.65-.22c.57-.14,1.15-.29,1.72-.57.72,0,1.51-.07,2.3-.22,1.29.93,2.8,1.72,4.38,2.23,1.65.57,3.02,1.36,4.24,2.59.22,1.01.57,1.87,1.01,2.8.22.22.22.43.07.65-.5.22-.72.57-.72,1.08,0,.43-.22.86-.57,1.15l-.07.14c2.73,6.11,6.68,11.42,11.77,15.87.36.14.65.07.86-.29v-.07c.5.22.79.57,1.01,1.08.29.43.79.86,1.36,1.22l.29.14ZM61.44,433.87c.14,1.01.5,1.94,1.15,2.73-.43.93-.43,1.94,0,2.87-.07.43-.29.72-.65.79-.36.07-.65.36-.72.72-.72.79-1.58,1.36-2.51,1.65-1.01.07-2.15.14-3.23.22-1.22.07-2.15.5-2.87,1.36-.14.65-.07,1.29.22,1.8.22.07.36,0,.43-.22.07.07.14.07.22.07-.36.86-.86,1.15-1.51.93-.79-.07-1.58,0-2.3.22-1.15-.36-2.23-.86-3.16-1.44-.65.07-1.15,0-1.58-.36-.07-.72-.57-1.22-1.29-1.58-1.65-1.15-2.94-2.66-4.02-4.38-.36-.22-.5-.57-.29-1.08.36-.22.65-.43.79-.79,1.87-1.15,3.73-2.44,5.6-3.81.65-.65,1.29-1.36,2.08-2.01.86-.65,1.79-1.08,2.8-1.58,1.01-.5,2.01-.43,3.09.07,1.22.5,2.3.93,3.52,1.44,1.44.65,2.87,1.44,4.24,2.37ZM65.1,458.51c-.14.07-.29.14-.43.22-.93.86-1.79,1.8-2.51,2.8-.07.36-.29.57-.5.72-.29.65-.5,1.29-.72,1.8q0-.07.07-.14c.22,0,.36.07.5.22-.22.29-.22.57.07.86.29,0,.65-.07,1.01-.29.57-.22,1.08-.57,1.51-1.08.14-.07.36-.07.57-.07-.07-.36-.07-.72,0-1.22.22.07.5.14.79.22-.07-.5.36-.79,1.15-.86-.65-1.01-1.15-2.01-1.51-3.16Z"/>
    </g>
    <g>
      <path class="st0" d="M147.52,113.79l-.29-.05-.27.05c-.3-.06-.52-.09-.67-.08-.19.03-.33.09-.41.17-.06-.05-.11-.1-.14-.14l-.09.03c-.19.19-.33.32-.43.38-.04.03-.09.05-.15.06-.13.12-.23.22-.29.29-.24.13-.38.25-.4.35-.08-.15-.15-.26-.22-.32-.12-.22-.21-.41-.24-.56-.09-.22-.16-.34-.2-.36l.06-.14-.08-.04.05-.26-.03-.06h-.03s-.05.04-.06.05c-.02-.02-.04-.05-.04-.08h.03s-.01-.06-.01-.09l.06-.09h.03c-.05-.12-.09-.18-.1-.21h.03c.02-.39.03-.56.03-.53,0-.09-.05-.2-.15-.32-.18-.2-.32-.56-.43-1.07-.31-.38-.73-.59-1.28-.65-.05.01-.09.04-.12.08l-.26-.06c-.07.03-.14.07-.18.12l-.07.03s-.02.07-.02.11c0,.11.06.26.17.45.11.19.23.55.36,1.08.18.75.28,1.13.29,1.16.03.11.11.25.24.42h.11l.03.06v.17h-.11l.07.22h.09c-.05.12-.01.27.12.45v-.06h.02s.04.04.06.06v.22s.04-.03.04-.03v-.06l.05-.04.05.03c.22.44.34.7.35.77l-.04.03.03.05h.01s.04,0,.04,0l.05.03s.04.04.06.07l.03.03v.06c.08.13.12.24.12.32l-.08.14h-.02c-.37.34-.67.65-.9.93-.21.17-.38.29-.49.35-.19.21-.33.37-.41.47v.03c-.07.07-.12.14-.14.22-.03,0-.05,0-.06,0-.02.04-.03.08-.03.11,0,.79.18,1.3.53,1.53.22.15.36.28.46.38.05-.02.1-.03.15-.03.17,0,.29.1.35.29l.08-.11.17.11-.05.11h.14l-.06-.08h.06l.04.08h.11s.14.07.28.1c.15.03.25.11.33.24h.02s0-.06-.02-.09h.02c.25.11.45.18.61.21l.2-.03.38.11c.32-.08.57-.13.74-.14.49-.04.84-.15,1.06-.34.21-.19.4-.52.58-1.01l-.03-.06.03-.11v-.03s-.15.08-.15.08c.02,0,.02,0,.01.03-.02.02-.05.04-.07.04h-.06c-.13.04-.19.06-.17.06v.12c-.08.11-.13.19-.16.24l-.38.05c-.11-.04-.2-.07-.26-.08l-.09.03-.05-.1.05-.2c-.09,0-.23-.02-.4-.07-.18-.05-.32-.07-.42-.07-.03,0-.06,0-.09.01l-.02.03c0,.08,0,.14-.01.17l.03.14c-.05,0-.09.02-.11.03l-.06-.03c-.11-.14-.18-.23-.21-.27l-.11.06c-.14-.11-.23-.17-.31-.18v-.04l.05-.02.05.02.04-.02c-.09-.04-.15-.08-.18-.12-.04,0-.08,0-.11-.01-.04.02-.07.04-.09.04h-.01c-.16-.14-.27-.25-.34-.33l-.09.05s-.05-.02-.06-.05c-.02-.07-.03-.13-.03-.18-.15,0-.27-.09-.35-.26,0-.02-.06-.18-.14-.45.05-.13.08-.23.13-.29l-.02-.06c.04-.1.08-.2.13-.31.05-.1.12-.18.21-.22h.08s.04-.05.04-.05c.15-.04.25-.07.27-.08.07.11.13.19.18.23l.09.34-.11-.13v-.08c-.05-.07-.1-.12-.13-.15v.08c0,.06.12.28.37.65.25.37.41.6.48.67.05.01.17.06.35.14.14.07.27.1.37.1.03,0,.08,0,.14-.01.06-.01.11-.02.15-.02s.1,0,.18.03c.08.02.14.03.19.03.04-.24.07-.43.09-.56,0-.02.03-.06.07-.11.05-.05.07-.1.07-.15,0-.5.06-.81.17-.92l-.03-.18c.12-.15.2-.27.24-.35l-.03-.15c.11-.16.2-.26.25-.31l-.05-.06c.05-.15.09-.24.14-.27l.05-.02v-.09l.15-.13c0-.17.02-.29.04-.36.05-.04.09-.07.16-.09-.01-.13.02-.29.09-.48.07-.19.16-.3.27-.32l-.37-.47ZM150.34,110.66l-.17.02-.13-.06s0,.08-.02.12h-.19l-.07-.06c-.25.05-.34.07-.26.07h-.09s.04.29.04.29h-.09v.1c.14.16.25.29.31.38.35.25.65.43.91.53l.41-.13-.03-.08s.03-.07.05-.1l.04-.03h.05v-.06l.03-.06c0-.08.02-.13.03-.15.02-.02.05-.04.08-.06,0-.04,0-.06.02-.06h.06c-.35-.44-.67-.65-.98-.65ZM149.73,112.47c-.1-.09-.15-.15-.15-.18,0-.03.01-.06.04-.09-.2-.16-.37-.3-.5-.41-.23-.08-.4-.14-.5-.18l-.06.03c-.26.02-.47.03-.63.03l-.26-.03.05.03-.07.03-.03.06c.01.1.02.18.03.22-.05,0-.09,0-.11-.01v-.02s-.01.02-.01.02c-.02.04-.03.08-.03.12,0,.15.14.36.4.64.23.23.45.4.63.48.01-.01.02,0,.02.04l.03.06.18-.03s.04.06.08.08c.19.03.34.05.44.07l.02-.13.03-.08c.31-.25.51-.44.61-.56-.02-.04-.08-.11-.18-.2ZM143.18,115.59l-.08.06.09.06v-.09s-.01-.03-.01-.03ZM146.77,119.46s-.08-.02-.13-.02c-.13,0-.29.04-.47.11,0-.04.03-.02.09.07h.01s.01-.07.01-.07h.05l.09.14s-.02.06-.02.05l.05.02.15-.22.15.07v-.13ZM141.17,118.32s-.05-.02-.06-.03c-.03.03-.04.07-.04.1v.06c.05-.01.08-.02.11-.03v-.11ZM146.53,115.5c-.1.17-.14.3-.13.4v.11c-.07.03-.21.23-.43.59-.18.31-.3.53-.35.65l-.14-.06c-.06-.25-.15-.4-.29-.44l.05-.06c-.21-.37-.33-.66-.38-.86.03-.03.06-.06.11-.08.04-.02.08-.03.12-.03.2-.19.36-.32.49-.39.03,0,.23-.07.6-.19l.08.04c.12-.04.2-.06.23-.06.1,0,.18,0,.22.02-.01.08-.06.2-.16.37ZM142.44,114.16v-.15s.04.06.04.1l-.04.05ZM145.95,119.79l-.08.03-.14-.12.07-.05.11.02.08.07-.04.05Z"/>
      <path class="st0" d="M148.44,129.38c-.05.12-.08.33-.09.64-.01.45-.02.69-.02.69l-.06.08v.24c-.2.3-.38.7-.52,1.18-.17.03-.33.23-.49.59-.15.36-.29.57-.39.63-.29.64-.55,1.24-.76,1.77h-.11s-.01-.06-.01-.09c0-.1.03-.22.09-.36.08-.18.12-.3.14-.35.05-.2.09-.44.14-.74,0-.03.07-.25.23-.65-.02-.11.01-.28.08-.5l.09-.06s-.01-.1-.02-.17c-.02-.08-.02-.14-.02-.17,0-.03,0-.1.01-.2.02-.1.02-.18.02-.24l.02-.04s.03-.02.06-.03c0-.16.02-.35.06-.59.02-.03.05-.08.09-.15-.03-.04-.04-.15-.04-.31,0-.15,0-.23,0-.21l.04-.03c-.03-.17-.09-.43-.18-.77l.03-.08-.43-.41c-.14-.09-.35-.2-.63-.33-.16-.02-.4-.07-.7-.15l-.12.05-.11-.09-.08.04s-.09,0-.4,0c-.08,0-.21.04-.38.11-.17.08-.32.11-.44.1l-.14.06c-.06-.02-.11-.03-.15-.03-.08,0-.17.05-.26.17h-.06l-.06-.05h-.03c-.29.09-.62.21-.98.36-.04.01-.08.02-.1.02-.17,0-.37-.14-.63-.41-.26-.27-.38-.49-.38-.67,0-.05.02-.1.05-.15.03-.05.05-.09.05-.12l-.03-.15c.04-.25.16-.47.35-.67.46-.14.76-.21.92-.21.1-.11.48-.42,1.14-.92.5-.39.79-.71.84-.94-.54-.57-.81-1.03-.81-1.35-.03,0-.07-.04-.12-.09-.1-.38-.15-.64-.15-.77-.03-.02-.06-.03-.08-.03,0,.03-.02.06-.02.09v.07c-.06,0-.09-.01-.09-.03v-.1c.15-.09.38-.24.67-.44l.62-.04c.37.15.77.38,1.21.68.1.15.23.25.38.3.15.05.31.1.47.15.14.2.33.37.57.5.02.12.11.28.26.49v.15c.06.1.09.26.09.47v.52c-.17.12-.24.26-.24.41-.2.1-.35.15-.43.15-.22,0-.46-.08-.7-.24l-.14.03s-.1-.05-.2-.11l-1.08.24c-.09.05-.19.14-.29.27l-.06.02s-.07-.04-.09-.06v.09c-.17.03-.26.04-.26.03-.58.27-1.01.59-1.3.95l.26.14v-.09l.26.07c.06,0,.14-.05.25-.13.11-.07.2-.11.27-.11.03,0,.07.01.11.03l.08-.18v.15h.18v-.06s.05-.01.05-.01c.02,0,.05.02.09.03v-.05s.01-.04.01-.04l-.03-.02h-.23c.1-.02.26-.05.47-.09-.06.03-.12.07-.18.11.01.02.02.03.03.04.14-.02.32-.09.52-.2.09,0,.23-.03.4-.1.18-.07.32-.1.4-.1.05,0,.1,0,.15.03.04-.03.09-.04.16-.04.05,0,.17.02.35.06.14.03.25.04.32.01.07.08.17.13.3.16.13.03.25.05.37.07.12.03.28.16.5.39.21.23.38.37.5.43l.03.04s.05.04.08.06l-.02.06.09.02.05.04c.05.09.1.21.15.38v.09c.03.08.06.17.06.25,0,.15,0,.24,0,.25,0,.01.05.08.13.2l.02.09Z"/>
      <path class="st0" d="M148.95,144.66c-.1-.16-.18-.26-.23-.3-.41-.24-.73-.41-.96-.52-.01-.06-.01-.12-.01-.18,0-.07.03-.27.09-.61.07-.34.12-.52.15-.57.01,0,.11-.07.28-.2.12-.09.18-.18.18-.27,0-.13,0-.24.03-.33-.19-.26-.34-.45-.44-.56,0,0-.05-.11-.14-.3-.05-.13-.11-.21-.17-.25-.18.05-.31.17-.37.37-.04.11-.09.57-.15,1.38-.06.76-.09,1.24-.09,1.44-1.46.16-2.27.36-2.46.58-.03,0-.08-.01-.14-.01l-.09.03c-.14.11-.24.19-.31.25-.17.03-.26.24-.26.63,0,.07.01.15.04.23l-.03.05c0,.16.08.37.28.62.2.25.38.39.55.41,0,.04.04.08.08.11.05.04.1.05.15.05h.19c.24.08.42.13.55.15.23.14.38.24.47.33.5.36.78.62.83.81l.09.03s.04,0,.08-.02c.29-.09.43-.58.43-1.48,0-.08.01-.21.04-.39.02-.18.04-.31.04-.4,0-.32.01-.51.04-.58.02-.07.11-.1.25-.1.12,0,.27.01.44.04.06-.02.14-.02.25,0,.13.02.21.03.24.03.07,0,.16-.01.26-.04l.12-.12c-.1-.03-.2-.12-.31-.29ZM149.29,138.61c-.1,0-.24-.03-.43-.09-.52.06-.89.15-1.1.27.05.21.25.43.58.64.47.28.73.45.79.51v.06c-.01.09.01.16.06.22.2.07.35.14.44.2.3,0,.64.06,1.04.19.2-.25.35-.46.43-.62-.42-.93-1.03-1.4-1.82-1.4ZM145.41,138.46c-.08-.17-.12-.32-.12-.44h-.05l-.05-.03-.03.02c-.31-.34-.55-.58-.72-.72l.06-.1v-.15l.11-.21c-.05-.1-.08-.18-.08-.23v-.03c-.14-.06-.26-.19-.36-.41l-.72-.2-.12.12.03.27c-.08.32-.12.51-.12.59,0,.03,0,.07.01.12-.09.05-.2.07-.33.04-.14.06-.25.11-.35.15-.05-.07-.12-.1-.2-.1-.11,0-.2.03-.27.07-.78-.27-1.43-.41-1.96-.41-.27,0-.41.19-.41.59.31.58.46.93.48,1.08l.02-.06c.19.15.34.3.46.46.19.17.34.28.46.35.2.21.35.38.44.49.12.21.23.36.32.45-.16.8-.3,1.39-.42,1.78-.07.27-.1.76-.1,1.47,0,.38.08.75.23,1.09l.17-.03s.06.02.09.03l.2-.47-.13-.41s.01-.08.05-.14c.03-.06.04-.11.04-.14.04-.86.22-1.52.52-1.95,0-.2.05-.35.17-.45.05-.06.18-.15.41-.26.14-.07.22-.1.25-.1.05,0,.11.03.18.08h.1s.11.03.11.03c.35,0,.6-.05.76-.15.11-.07.19-.17.25-.3.07-.13.13-.21.21-.22l.02-.11c.25-.33.4-.57.46-.7.05-.14.09-.25.13-.33-.01-.03-.08-.17-.18-.41ZM146.99,145.53c0,.08,0,.2-.02.37-.01.16-.01.29-.01.36-.12.03-.22.05-.28.05-.1,0-.21-.07-.34-.21-.08-.1-.17-.2-.26-.3.15-.25.45-.42.89-.51.01.05.02.09.02.13v.12Z"/>
      <path class="st0" d="M150.6,156.84c.04.56-.2,1.21-.72,1.95-.06.12-.15.29-.27.5-.39.56-.82.99-1.26,1.28-.25.16-.44.23-.55.21-.3-.06-.53-.09-.67-.09-.08,0-.19-.04-.33-.13-.17-.12-.29-.18-.35-.2-.03-.07-.11-.15-.24-.24-.13-.09-.21-.17-.25-.23-.04-.06-.12-.2-.23-.42v-.14c-.12-.13-.2-.36-.23-.67-.03-.32-.06-.51-.11-.58l.05-.11c-.05-.05-.07-.18-.07-.38l-.03-.06.06-.17-.06-.18c.11-.18.17-.41.17-.68,0-.09,0-.18-.03-.26-.22-.02-.53,0-.91.06-.04.04-.09.08-.16.1-.07.03-.16.06-.27.11-.3,0-.67.24-1.08.76-.57.72-.86,1.09-.89,1.09l-.17.38s0,.06.01.09c-.03.03-.09.12-.17.27l.03.1c-.04.12-.09.25-.15.38l.03.03v.04s0,.04,0,.04l.04.42c.01.08-.02.17-.09.28-.07.11-.15.15-.23.13l-.02.12s-.08.05-.14.05l-.15-.14-.2.05c-.09-.15-.26-.32-.52-.5-.02-.11-.09-.32-.21-.64-.12-.31-.19-.54-.19-.68,0-.23.05-.4.14-.51.2-.09.42-.63.69-1.62.1-.2.23-.51.4-.94.11-.13.22-.3.32-.53.08-.19.17-.39.26-.57.04-.06.17-.27.38-.62.21-.35.7-.97,1.47-1.83.82-.94,1.34-1.42,1.54-1.45v-.15c.05-.09.16-.17.32-.21v-.09c.06-.05.14-.14.24-.24l.03.03.08.03c.08-.18.3-.27.67-.27h.08s.1.07.17.1l.21-.04c.06,0,.15.04.26.11.11.08.21.11.3.11v.12s.13.24.13.24c0,0,.03-.02.04-.03h.03c.02.09.03.5.03,1.24l.05.03s.04.11.03.2h-.06s-.05.15-.05.39c-.08,0-.16.11-.24.3-.09.22-.18.36-.27.42v.11c-.19,0-.41.13-.68.38-.34-.13-.58-.2-.72-.2,0-.01-.04-.03-.11-.06h-.03c-.08.05-.26.18-.52.39-.31,0-.91.51-1.82,1.52-.15.27-.41.65-.8,1.14l-.03.06s.03.07.05.1c.34-.32.79-.6,1.36-.83.5-.17,1.01-.35,1.53-.53.13-.32.38-.49.75-.49.01,0,.04,0,.08.02l.14.1s.05-.03.09-.03c.09.04.18.12.25.24.15,0,.29.01.41.06.01.09.05.24.08.45l.03.17c-.01.05-.15.28-.4.7-.2.35-.3.8-.3,1.38,0,.96.24,1.58.72,1.85.28.16.45.24.5.24.69,0,1.61-.99,2.75-2.95Z"/>
      <path class="st0" d="M129.91,133.01c-.38,0-.61-.15-.68-.45-.12-.04-.24-.13-.35-.28-.11-.15-.2-.22-.28-.22v-.11l-.09-.05-.04-.12c.18-.16.37-.26.56-.29.19-.03.38-.06.59-.09.28-.03.44-.05.46-.05.02.22.04.44.06.67.03.28.08.49.15.64l-.37.35ZM134.9,126.33c-.08-.03-.14-.04-.18-.04-.13-.1-.24-.27-.32-.5-.09-.31-.15-.5-.18-.56-.22-.27-.38-.47-.5-.58-.13,0-.28-.07-.47-.19-.19-.12-.34-.18-.44-.17h-.07c.2.3.41.6.62.89.26.39.38.73.38,1,0,.22-.33.39-.98.52-.23.02-.41.03-.53.03l-.11-.08-.12.08-.06-.05s-.03.02-.18.03c-.18.02-.45-.05-.79-.19l-.12.04-.14-.06.09-.2v-.06s-.06-.04-.07-.08c.01,0,.03,0,.06-.02.09-.13.16-.23.21-.29-.02-.13.02-.29.12-.48.1-.19.16-.33.17-.41.21-.34.4-.53.55-.56,0-.13.04-.24.11-.34.07-.1.12-.18.15-.25.04-.14.06-.25.07-.33-.11-.39-.36-.67-.75-.86-.06.01-.11,0-.15-.03l-.05-.03h-.02s.01-.04.04-.06c-.4-.13-.65-.2-.75-.2-.06,0-.1.03-.14.05l.06.35c-.13.22-.24.53-.34.91-.1.44-.17.72-.21.82l.05.09c-.09.16-.14.48-.14.95v.77l-.35.15.08.3-.03.09c.02.07.06.14.12.2v.02s-.05.06-.06.09l-.02.06c.2.32.33.75.37,1.27.02.44.05.89.08,1.33l-.25.19-.18-.03c-.85.14-1.58.26-2.21.36-.18.1-.38.25-.59.44-.31.26-.5.49-.58.68,0,0,0,.02.02.05l.03.03h-.04s-.07.08-.08.14c.08.37.15.61.23.7-.02,0-.03.01-.04.01,0,0,.03.06.1.15.06.02.1.03.14.04l-.04.09.04-.03.06.03s.07.09.12.12l.11-.02c0,.11.05.2.14.28.09.07.18.15.27.22-.03.08-.04.11-.04.08.02.02.04.04.04.06.31.04.58.15.81.32.12.12.21.2.27.26.33.16.58.27.75.33.13.07.22.13.27.17.26.09.45.16.6.21.1.06.18.11.23.15.24.11.41.16.5.15.08-.12.15-.19.21-.19.05,0,.1-.01.13-.02l-.03-.23.03-.09c.1-.19.16-.34.16-.44.01-.02.04-.04.06-.04-.04-.14-.06-.25-.07-.32l.06-.33s-.07-.12-.11-.24c-.04-.11-.09-.2-.15-.25l.07-.14c-.14-.28-.21-.64-.21-1.06v-.39s.05-.06.09-.08h.19c.59,0,1.05.13,1.37.39l.09.03h.1s.48.47.48.47l.1.51c-.11.21-.17.37-.17.48,0-.03.03-.06.06-.1.14-.03.25-.05.33-.05v-.18c.02-.07.05-.12.08-.17.03-.13.06-.23.09-.3.14-.17.24-.28.31-.32.09-.01.16-.02.21-.02-.04-.16-.12-.29-.23-.4-.11-.1-.18-.19-.22-.28-.03-.09-.04-.16-.04-.22-.03-.05-.13-.18-.29-.39-.16-.21-.26-.32-.29-.34-.02,0-.03.02-.03.03-.1-.1-.17-.17-.21-.21-.37-.13-.65-.21-.83-.24l-.15.04c-.13-.04-.32-.06-.6-.04-.28,0-.48-.01-.61-.08l-.08-.85s.01-.13.04-.24c.03-.1.05-.18.05-.23,0-.04-.01-.11-.03-.21l.03-.08.06-.03s.19.06.55.17c.36.11.63.17.81.16.08,0,.19,0,.33.01.14,0,.25.01.31.01.39,0,.88-.25,1.47-.74.59-.5.89-.93.89-1.3-.05-.03-.1-.07-.14-.12Z"/>
      <path class="st0" d="M135.92,143.24c.04.56-.2,1.22-.72,1.95-.06.12-.15.29-.27.5-.4.56-.82.99-1.27,1.28-.25.17-.44.23-.55.21-.31-.06-.54-.09-.68-.09-.08,0-.19-.04-.34-.14-.17-.11-.29-.18-.35-.2-.03-.07-.11-.15-.23-.24-.13-.09-.21-.16-.25-.23-.04-.06-.12-.2-.23-.42v-.14c-.12-.13-.2-.35-.23-.67-.03-.32-.06-.51-.11-.58l.05-.11s-.08-.17-.08-.38l-.03-.06.06-.17-.06-.18c.11-.18.16-.4.16-.68,0-.09,0-.18-.03-.26-.22-.02-.53,0-.92.06-.04.04-.09.08-.16.1-.07.03-.16.07-.27.11-.31,0-.67.24-1.08.76-.57.72-.86,1.08-.89,1.09l-.17.38s0,.06.02.09c-.03.03-.09.12-.17.27l.03.1c-.04.12-.09.25-.15.38l.03.03.02.04-.02.05.05.43c.01.08-.02.17-.09.28-.07.11-.14.15-.23.13l-.02.12s-.07.05-.14.05l-.15-.14-.2.05c-.09-.15-.26-.32-.52-.5-.02-.11-.09-.32-.22-.64-.12-.31-.18-.54-.18-.68,0-.23.05-.4.14-.51.19-.09.42-.63.69-1.63.1-.2.24-.51.4-.94.11-.13.22-.31.32-.53.08-.19.17-.39.26-.58.04-.06.16-.27.38-.62.22-.35.71-.96,1.47-1.83.82-.94,1.33-1.43,1.54-1.46v-.15c.05-.09.16-.16.32-.21v-.09c.07-.05.14-.13.25-.24l.03.03.08.03c.08-.18.3-.27.67-.27h.08s.1.06.17.1l.21-.04c.06,0,.15.04.26.11.11.08.21.11.31.11l-.02.12.14.24s.03-.02.04-.03h.03c.02.09.03.5.03,1.24l.05.03s.04.11.03.2l-.06-.02s-.04.17-.04.41c-.08,0-.17.11-.25.3-.09.22-.19.36-.28.42v.1c-.18,0-.41.13-.67.38-.33-.13-.58-.2-.72-.2-.01,0-.04-.03-.11-.06h-.03c-.08.05-.26.18-.52.39-.3,0-.91.51-1.82,1.52-.16.27-.42.65-.79,1.14l-.04.06s.03.07.05.1c.35-.32.8-.6,1.36-.83.51-.17,1.02-.35,1.53-.53.13-.32.38-.49.75-.49.01,0,.03,0,.07.02l.14.11s.05-.03.09-.03c.09.04.17.12.25.24.15-.01.29.01.41.06.02.09.05.24.08.45l.03.17s-.14.28-.39.7c-.21.34-.31.8-.31,1.38,0,.96.24,1.57.72,1.85.29.16.45.24.5.24.69,0,1.61-.98,2.75-2.95Z"/>
      <path class="st0" d="M135.02,155.86s-.08.08-.14.17c-.01.04,0,.12.04.24-.11.09-.15.2-.12.35-.18.16-.46.5-.84,1.01-.4.57-.61.94-.61,1.12l-.06.05c-.42.58-.63.94-.64,1.08-.12.09-.2.18-.25.25-.04.08-.08.18-.13.27l-.05.02s-.06-.03-.07-.03c-.02.02-.03.05-.05.07h.03l.05.02h.03s-.11.06-.11.06l-.03-.03h-.03s-.04,0-.04,0l-.02.05s.03.01.05.04v.03c-.17-.03-.29-.09-.35-.17.18-.18.36-.4.55-.66,0-.23.09-.49.26-.79v-.04s0-.02,0-.02h.01l.03.02.03-.02c0-.09.02-.17.06-.24.06-.11.1-.17.11-.2.33-.92.49-1.55.49-1.91l.05-.12c-.08-.09-.18-.24-.29-.47-.05-.02-.17-.03-.35-.03l-.23-.05c-.08.02-.2.04-.35.06-.02-.01-.04-.02-.07-.02-.04,0-.07,0-.09.02l-.02.06-.14-.05-.15.05-.03.09-.17.06-.08-.06-.18.16-.09-.08c-.06.02-.57.15-1.52.39l-.06-.1c-.5-.1-.75-.52-.75-1.25,0-.05-.01-.11-.03-.17l-.05-.03.05-.17c-.02-.07-.05-.17-.09-.32l.03-.06c-.11-.2-.22-.51-.37-.91l-.2.06s-.17-.08-.4-.13c-.23-.04-.37-.09-.44-.14-.03,0-.1-.08-.21-.2-.08-.09-.16-.13-.22-.13-.05-.09-.16-.16-.34-.21-.06-.02-.24-.19-.54-.5-.09-.08-.17-.22-.22-.43-.07-.25-.11-.41-.14-.47l-.05.05h-.01s-.09-.17-.09-.17c.05-.07.08-.15.08-.23,0,.04-.03-.06-.08-.3v-.06l.21-.12c.08,0,.16.01.22.03l.15-.09.11.08.32-.14.18.14.14-.03s.06.02.13.07c.06.04.14.07.2.07l.08.15s.12-.01.22-.01h.09c.04.07.12.17.23.29l.03-.03s.06-.02.11-.03c0,.01.04.02.09.02h.08c.01-.06.01-.28.01-.65,0-.09.03-.3.08-.63.05-.33.11-.54.16-.64.05-.1.13-.26.23-.49.05-.02.11-.03.17-.03.1,0,.27.06.52.21.24.13.41.25.51.34,0,.16.06.29.18.38l-.21.08v.26c-.14.12-.36.28-.66.49-.08.17-.13.31-.13.41,0,.06.02.15.05.26.03.01.08.03.17.08l.44-.12.12.04.3-.07.06.03c.58-.28,1.04-.4,1.37-.35l.03-.08c.09,0,.24-.02.44-.08.2-.05.35-.08.45-.08l.13.06.09-.05.2.06s.03-.05.05-.06l.08.02.03.05h.04s.09,0,.14.01l.05-.03c.06.03.15.07.26.12l-.02.06c.02.06.06.15.12.27-.03.08-.08.21-.15.38-.01.05,0,.1.02.14-.04.02-.11.07-.21.14l-.06.08s-.06-.04-.09-.05c-.08.03-.14.07-.18.12l.02.13c-.18.07-.47.15-.84.24-.16.11-.38.21-.64.3-.22.07-.45.14-.67.21-.07.03-.26.14-.58.35-.15.06-.31.12-.46.18-.21.09-.32.2-.32.32,0,1.14.28,1.71.84,1.71.06,0,.52-.07,1.39-.23l.07.05c.1-.09.26-.16.49-.2.17-.02.35-.05.51-.07.08-.11.17-.18.28-.21.11-.03.23-.04.35-.06l.14.05c.09-.03.15-.05.17-.05.18,0,.43.06.74.18l-.06.12c.1,0,.21.06.32.17.16.15.25.24.29.26l-.06.15c.07.09.17.23.29.43Z"/>
      <path class="st0" d="M133.7,173.51c-.11.02-.25.09-.45.21h-.04l-.28.26c-.09,0-.24-.06-.46-.18-.15-.08-.3-.16-.44-.24-.05-.01-.12-.03-.2-.07-.04-.05-.09-.1-.15-.15-.02,0-.05-.02-.09-.02l-.03.02-.03.05c-.02-.06-.1-.15-.25-.28-.15-.12-.22-.23-.22-.31l-.15-.09v-.11c-.16,0-.32-.12-.47-.36-.18-.32-.28-.49-.29-.5-.36-.3-.69-.5-1.01-.6l-.07.05c-.19-.22-.45-.33-.78-.33-.23,0-.4.09-.53.26-.02.14-.11.29-.26.44-.23,0-.47-.12-.7-.35-.02-.13-.08-.3-.18-.52-.09-.16-.18-.32-.25-.48-.03-.05-.07-.08-.15-.09l-.03-.23v-.06s.04-.01.06-.03c-.03-.08-.08-.15-.16-.2v-.08s.05-.07.08-.1l.02-.06c-.04-.07-.09-.18-.15-.33l.02-.09c-.04-.08-.06-.21-.07-.37-.01-.17-.02-.28-.03-.34.02-.17.06-.3.13-.39l.56-.53c.07-.03.19-.09.35-.18.06-.06.28-.32.65-.77.3-.38.53-.59.68-.63.03-.18.17-.41.42-.68.25-.27.46-.41.65-.41l-.08-.11c.04-.07.2-.25.48-.55.27-.29.46-.47.55-.55.03-.05.08-.12.15-.23.1-.03.24-.1.41-.21.03-.07.09-.17.18-.3l.2.02.37-.08.53.18v.06c.07.05.18.12.32.2.17.27.41.57.7.89l-.06.26s.09.11.15.23c-.06.11-.15.28-.26.51-.05.01-.23.06-.57.14-.32-.07-.5-.11-.52-.11-.08,0-.26.13-.53.38-.23.22-.38.4-.49.53-.09.07-.22.17-.38.3-.19.18-.34.34-.46.49-.54.59-.92,1.1-1.14,1.51-.11.12-.24.31-.41.56-.05.1-.08.27-.08.5,0,.21.16.45.49.73l.73.57v-.04s.01.01.01.01l.02.05.03.03c.14.06.33.17.58.34.24.16.43.28.56.34.11.01.25.03.45.06.57.13.99.33,1.27.6.02,0,.04-.01.06-.01.06,0,.13.04.21.11.08.08.15.15.21.22.02,0,.06-.01.12-.01.05,0,.2.12.44.36v.3c.05.08.08.18.08.3v.32Z"/>
      <path class="st0" d="M118.04,152.61h-.06l-.03.03-.04.02.04.03s.06-.03.09-.06h.03s-.02-.02-.03-.02ZM120.68,143.93c-.09-.02-.29-.03-.59-.03s-.61.05-.93.15h-.08l-.06.06-.17-.06c-.11.05-.33.11-.64.17-.27.06-.47.13-.6.2-.03-.06-.04-.11-.04-.15,0-.71.08-1.25.23-1.62l-.2-.28-.24.04c-.08-.13-.18-.16-.29-.11-.03-.01-.06-.02-.09-.03-.04,0-.07.03-.09.04l-.06.02s-.06,0-.15-.02l-.05.05c-.13-.08-.23-.12-.29-.12l-.17.06s-.05.11-.11.2c-.07.1-.1.17-.1.23,0,.11.04.25.12.41.08.16.13.28.15.35.02.07.02.22,0,.44,0,.18.02.32.06.41l-.13.67h-.14c-.11.11-.3.2-.57.27-.07.02-.33.15-.78.38-.39.21-.64.31-.73.3h-.05c-.08-.08-.14-.18-.18-.3-.03-.12-.08-.2-.13-.24,0-.39-.09-1.03-.26-1.91-.1-.31-.19-.54-.26-.69-.16-.16-.25-.25-.26-.27l-.02-.08h-.06s-.08-.06-.09-.07c-.08-.04-.13-.07-.16-.09-.03-.01-.05-.03-.06-.07h-.09l-.11-.11h-.05s-.07-.02-.11-.03l-.07.05s-.06.09-.08.15c-.02.06-.05.16-.08.3-.03.14-.04.25-.04.35,0,.42.03.69.09.82-.02.26.04.73.2,1.39.13.59.25,1.04.37,1.36l-.08.23c-.23.08-.39.15-.49.2-.16.04-.25.07-.28.09-.03,0-.06-.02-.09-.03-.08.06-.14.11-.18.15-.07-.02-.13-.09-.16-.21-.02-.02-.05-.04-.08-.06-.12-.05-.21-.09-.26-.12l-.03.05-.05-.06c-.05-.02-.1-.03-.15-.03l-.05-.03c-.23.09-.41.15-.52.2-.11.04-.24.15-.39.33-.15.18-.22.33-.22.44v.11s.03.21.11.52c.08.34.12.58.12.73,0,.19,0,.28,0,.26.11.24.2.44.26.59-.02.03-.04.05-.05.06v.04s.11.14.11.14c-.03.08-.03.14,0,.17.04.06.08.11.12.14v.08l.35.47c.27.15.46.27.58.35.02-.04.12-.13.3-.25.13-.1.2-.21.2-.33.03-.05.06-.09.13-.13.07-.04.11-.06.14-.08.07.09.14.15.19.18,0-.05,0-.09,0-.14,0,0,0-.1-.02-.29-.02-.12,0-.22.02-.3.03-.07.18-.25.45-.52.28-.27.47-.43.57-.49l.06-.02s.11.03.17.08c.26.51.5.9.72,1.18.08.2.14.35.17.44.16.22.29.38.4.47.33.58.76,1.07,1.31,1.46.6.4,1.22.6,1.87.6.08,0,.2-.03.36-.08.17-.05.28-.07.37-.07.08-.11.15-.19.2-.23-.41-.04-.71-.07-.9-.09l.05-.06h.06s-.09-.08-.14-.1c-.03.03-.06.06-.08.09l-.06.03-.05-.11h-.11l-.03-.2c-.13-.1-.2-.16-.2-.17l-.08-.03-.15-.16-.03.09c0-.11-.08-.23-.24-.34-.16-.12-.24-.22-.24-.31h-.05c-.11-.07-.19-.13-.24-.17-.04-.09-.07-.16-.09-.21l.03-.06c-.05.02-.1,0-.17-.08-.09-.1-.15-.16-.18-.17v-.2s-.19-.18-.19-.18l.05-.09-.15-.17v-.11s-.07-.12-.14-.28c-.06-.12-.13-.19-.2-.21.02-.06.04-.1.06-.12-.45-.89-.67-1.49-.67-1.82,0-.08.01-.17.03-.26.09-.04.15-.07.2-.09.04-.02.08-.05.1-.11l.05-.05s.06,0,.09.02l.18.13s-.01.08-.03.11c.05.07.09.12.11.17.11.05.2.08.26.09.1.09.21.14.32.14.09.03.19.1.29.2.06-.05.11-.09.14-.12h.08s.14.12.14.12l-.03.08c.04.14.06.22.06.24,0,.05,0,.09-.02.12.05.11.14.19.28.25-.06.07-.11.12-.16.17v.05s0,.12,0,.12c0,.02,0,.05-.01.09l.03.12s-.05.02-.06.03c-.01.04.04.16.15.36l-.08.09-.17-.05.03.06c.17.07.27.12.31.15.33-.09.65-.16.95-.23l.21.06c.27-.15.49-.25.66-.3.05-.04.17-.16.37-.36.19-.19.3-.31.31-.34.53-.79.86-1.31.98-1.58.07-.16.19-.53.35-1.11.13-.46.27-.82.44-1.06-.02-.22-.04-.36-.05-.43.03-.07.06-.12.08-.15-.11-.2-.25-.33-.43-.38ZM119.38,146.72c-.22.73-.43,1.22-.66,1.5-.01-.01-.02-.03-.03-.05,0-.02-.02-.04-.03-.04-.04.04-.08.09-.11.14l-.12.03s.04.02.05.03c-.06.09-.16.13-.3.13-.06.08-.19.14-.38.17-.19.03-.3.08-.34.13-.1-.06-.2-.1-.29-.1-.26-.21-.45-.57-.55-1.07.16-.32.3-.6.44-.82.08-.22.14-.39.18-.5.24-.61.7-.98,1.36-1.12.04-.01.11-.04.22-.07.1-.04.19-.06.25-.06.05,0,.11.01.18.05l.03-.05s.09.04.12.06l.08-.05.26.05c-.07.52-.19,1.06-.37,1.64ZM115.84,146.87c-.17-.04-.31-.06-.4-.08.16-.18.35-.3.55-.35v.28l-.15.14Z"/>
      <path class="st0" d="M120.27,157.06c-.05.36-.22.6-.52.73-.07-.07-.14-.1-.19-.1-.06,0-.1,0-.13,0-.22,0-.48.06-.78.18-.06.05-.15.11-.26.17-.11,0-.25.02-.41.06-.09.07-.22.17-.38.31-.07.02-.17.06-.31.11-.06.03-.16.1-.32.21-.06.17-.09.36-.08.57v.26c.31,0,.73-.11,1.27-.35-.01-.05-.01-.1,0-.17.01-.04.03-.07.06-.08.1.01.2.07.29.17v.03c0,.06.03.14.06.24-.03.17-.27.37-.72.61-.53.27-.83.45-.91.54-.08.09-.15.34-.21.73-.06.32-.09.58-.09.77,0,.12.02.24.06.36.29.1.59.2.9.3.41.14.61.34.61.59.02.04.06.09.12.15l.03.08-.15-.03s-.07,0-.13.02c-.05,0-.1.01-.13.01-.18-.02-.46-.05-.82-.08-.26-.02-.4.08-.43.29-.03.22-.06.43-.08.64l.06.2c0,.19-.02.32-.02.38,0,.12.01.3.04.52.03.23.04.4.04.51,0,.06-.02.15-.06.24-.04.1-.06.18-.06.24-.11.04-.25.1-.43.18-.1-.08-.22-.12-.35-.12-.56-.35-.85-.54-.87-.56-.32-.23-.57-.47-.73-.71-.15-.3-.41-.73-.81-1.29v-.03s0-.05,0-.07c-.06-.05-.14-.07-.26-.07-.08-.18-.17-.31-.26-.38,0-.55.24-.88.72-.97.02,0,.04.03.06.05h.06c.11-.05.26-.08.44-.08.12,0,.3,0,.53.02.23.02.4.02.5.02.11,0,.27,0,.48-.02.21-.01.36-.02.47-.02,0-.19,0-.49.02-.88.01-.39.02-.68.02-.88h-.07c-.06.03-.11.07-.15.12h-.06c-.09.09-.32.19-.68.32-.36.14-.61.21-.75.23-.13.01-.28.03-.42.04-.14,0-.26.05-.34.14-.2-.04-.36-.13-.5-.26-.13-.13-.27-.26-.41-.39v-.06c.01-.06-.02-.15-.09-.27-.07-.11-.11-.2-.11-.25,0-.03.02-.06.05-.11l.27-.09c.17.12.39.18.65.18.29,0,.7-.07,1.25-.22.55-.15.94-.23,1.2-.24l.27-.13v-.71c-.01-.28-.06-.51-.17-.67-.27,0-.43-.03-.49-.07h-.12s-.06.04-.07.07c-.08-.04-.19-.09-.34-.13l-1.28-.3c-.05-.02-.12-.05-.21-.07h0s-.12-.01-.12-.01c-.14-.11-.37-.17-.69-.17l-.06-.13h-.14c-.06-.02-.16-.08-.29-.15l-.09.02-.14-.2c-.14-.03-.32-.1-.54-.21-.02-.04-.07-.12-.15-.23-.03-.07-.04-.13-.04-.18,0-.21.08-.38.26-.5,0,0,.17-.08.49-.24l.06-.07.09.03.04-.07.04-.03.05-.02s.04.02.08.03c.11-.09.3-.12.55-.08l.16-.08c.21.01.49.04.84.08l.09.11s.03-.05.06-.07c.05,0,.13,0,.23.01.04,0,.1-.01.18-.01h.03s.06-.06.08-.06c-.02,0,.05.03.2.08h.09c.11,0,.26.01.46.03.08,0,.21-.02.38-.03.04.04.1.09.18.15.09-.22.26-.36.49-.41.18-.05.37-.1.57-.14l.17.08c.01.07.04.18.09.34.05.16.08.28.08.37h.08c.08.04.14.09.18.15.21.05.41.08.61.08.06,0,.14,0,.25-.02.11-.01.19-.02.26-.02.74,0,1.23.29,1.46.86ZM116.21,163.6c-.73,0-1.31.05-1.71.15-.32-.05-.44-.08-.37-.09l-.09.02s.1.15.31.4c.22.33.54.62.95.88.08.05.2.13.35.24l.34.04c.05-.36.13-.91.23-1.65Z"/>
      <path class="st0" d="M119.3,170.75c-.03-.08-.12-.17-.26-.25-.1-.08-.15-.2-.15-.36-.26-.11-.45-.2-.55-.29-.1,0-.18-.01-.23-.01-.09-.01-.23-.04-.43-.08-.13-.04-.32-.06-.58-.06-.04,0-.12.05-.23.15-.11.1-.18.16-.2.19.02.08.03.17.05.24.02.05.08.11.16.18.02.15.08.27.17.35.04.05.15.13.32.24l.03.04.02.08c.12.11.26.29.41.55.11.21.23.42.34.62l-.03.14.23.28-.03.12c.14.25.24.45.3.59.17.27.3.48.38.62l.08.05.05-.11.09-.03c.08.1.14.17.19.18l.09.03c.11-.43.25-.68.43-.77l-.05-.18.11-.32c-.3-.95-.54-1.67-.7-2.18ZM116.63,176.29l.06-.33-.15-.23.06-.15s-.06-.05-.09-.1c-.03-.05-.04-.08-.04-.11,0-.36-.08-.62-.25-.79l.04-.13c-.06-.05-.09-.09-.11-.14l.04-.03c-.07-.1-.15-.17-.23-.2l-.04-.21h-.12c-.08-.14-.16-.24-.23-.29-.17.04-.3-.03-.4-.19-.31-.16-.55-.28-.72-.35-.03.03-.11.03-.23.02l-.14.06c-.19-.07-.33-.12-.43-.14-.06-.12-.11-.2-.14-.26.02-.13.03-.23.05-.3l-.17-.29v-.11c-.19-.09-.35-.14-.47-.15-.08,0-.14.01-.18.03l-.06-.02c-.13.03-.21.05-.28.05l-.06.03c-.08.09-.14.16-.18.21h-.08c-.04.07-.07.11-.11.15-.03.04-.05.1-.05.18,0,.22,0,.32,0,.3l-.34-.06c-.06-.24-.17-.37-.31-.42h-.11v.07c-.1-.05-.22-.09-.35-.12-.04-.04-.08-.06-.12-.06h-.03l-.09.05c-.05-.05-.11-.08-.18-.08l-.05.02-.09.12-.15-.06s-.04.06-.06.16c-.02.1-.06.18-.12.25l.14.17-.06.06.09.44-.04.12.13.18-.03.03s-.03.08-.03.12v.08c.08.07.18.12.34.13l-.04.23.03-.02c.06.1.12.17.17.21.03.08.05.12.06.12.07.03.12.04.17.04.11.06.2.11.26.15.11.02.2.03.26.04l.24.27c.06,0,.11-.02.16-.03l.04.03.19.38c-.02.13-.01.49.03,1.09.08,1.16.38,1.95.89,2.36.03,0,.08-.01.15-.02.07-.02.13-.03.19-.03.03,0,.08.02.14.05l.02-.08s.02-.05.04-.08l.02-.05h-.12l.37-.41c.07-.03.13-.05.17-.06-.28-.01-.5-.22-.64-.63-.1-.29-.15-.62-.15-.99,0-.04.02-.24.07-.62.05-.37.08-.57.09-.6.03-.12.09-.2.17-.26h.04c.11-.05.18-.08.25-.08.18.08.35.26.5.54.04.06.15.28.33.68l-.02.09c.12.48.2.75.25.82l-.05.2c0,.11.08.29.24.55-.02.12,0,.35.07.7.07.35.13.56.21.63,0-.01.15-.05.41-.14.26-.08.46-.18.57-.28.21-.18.35-.49.41-.91.07-.52.12-.81.14-.85,0-.05-.02-.12-.06-.21.04-.22.06-.37.07-.43l-.14-.15Z"/>
      <path class="st0" d="M116.83,191.12c-.32-.11-.63-.22-.95-.33l-.13.03c-.07-.12-.46-.36-1.17-.71-.71-.35-1.06-.58-1.06-.68,0-.09.04-.18.12-.28.08-.1.17-.14.26-.14-.71-.05-1.12-.1-1.24-.14-.13.07-.2.14-.21.21h-.09c-.03.07-.1.14-.22.2l-.12-.12s-.05.06-.05.09c0,.01.04.16.11.44-.07.1-.11.18-.12.24v.12c-.02.13,0,.25.09.33.04.14.07.25.09.32.1.16.17.28.23.34.04.12.08.21.11.26.27.22.53.43.81.61.03.02.14.07.32.15.13.06.23.13.31.21l.03-.03c.13,0,.29.08.48.23.02-.03.05-.05.09-.05.15.09.26.17.31.23l.06-.03.17.05.09-.02.06.05.09.03c.34-.08.59-.13.78-.15.26-.07.6-.24,1-.52.47-.31.71-.57.73-.77-.3.02-.62-.04-.98-.17ZM119.76,185.32c-.09-.06-.26-.27-.5-.61-.24-.35-.38-.58-.4-.69.08-.13.21-.21.38-.24.17-.03.34-.06.52-.09v-.05c0-.05,0-.1,0-.12l.02-.05s.08-.06.1-.08c-.04-.28-.06-.5-.08-.65-.2-.1-.33-.18-.38-.23l-.09.03-.18-.11c-.08.06-.21.1-.37.11-.17,0-.28.06-.33.15-.08,0-.19-.05-.32-.14-.19-.13-.29-.19-.3-.19,0,.03-.02.06-.03.09-.12-.26-.19-.4-.2-.42-.1-.1-.18-.17-.23-.21v-.09c-.07-.01-.18-.05-.34-.12-.16-.07-.28-.11-.39-.11h-.09l-.08.08h-.15c-.32.2-.48.47-.48.82l.09.77c-.07,0-.13.03-.2.08-.19.04-.33.06-.41.06,0,0-.05-.01-.12-.03h-.04s-.02.06-.03.09l-.12-.03-.26.05s-.13-.06-.3-.07c-.17-.02-.26-.06-.28-.13l-.1.04c-.13-.04-.21-.08-.26-.12-.08-.02-.14-.04-.18-.06h-.01s-.07-.03-.11-.03c-.03.02-.05.04-.06.08l-.13-.05c-.15.02-.25.11-.29.25-.03.15-.07.29-.1.43.02.12.05.25.07.38.02.13.08.24.16.31l-.03.14c.27.2.44.36.49.49.16.03.29.13.38.3.19.05.53.23,1.02.55.42.27.76.41,1.01.41.11,0,.29-.06.52-.17.27-.13.46-.21.55-.23l.09.03c.04-.09.16-.18.35-.27l.09.03.12-.07c.32.19.48.29.5.29.07.1.27.26.61.47.31.18.47.34.51.47l-.42.5s.05.08.06.12l.32-.05c.33-.37.54-.91.66-1.59-.09-.23-.17-.41-.23-.52ZM111.73,190.01v.06s.03-.03.03-.03v-.03h.05-.07Z"/>
    </g>
  </g>
</svg>